ISO-10303-21;
HEADER;
/* Generated by software containing ST-Developer
 * from STEP Tools, Inc. (www.steptools.com) 
 */
/* OPTION: using custom renumber hook */

FILE_DESCRIPTION(
/* description */ ('STEP AP242 Edition 2',
'CAx-IF Rec.Pracs.---Representation and Presentation of Product Manufa
cturing Information (PMI)---4.0---2014-10-13',
'CAx-IF Rec.Pracs.---3D Tessellated Geometry---0.4---2014-09-14','2;1',
'CAx-IF Rec.Pracs.---User Defined Attributes---1.5---2016-08-15'),
/* implementation_level */ '2;1');

FILE_NAME(
/* name */ 'EQ Wedge Base',
/* time_stamp */ '2026-09-06T19:35:06Z',
/* author */ (''),
/* organization */ (''),
/* preprocessor_version */ 'ST-DEVELOPER v20',
/* originating_system */ 'ONSHAPE BY PTC INC, 1.220',
/* authorisation */ '  ');

FILE_SCHEMA (('AP242_MANAGED_MODEL_BASED_3D_ENGINEERING_MIM_LF { 1 0 10303 442 3 1 4 }'));
ENDSEC;

DATA;
#10=SHAPE_REPRESENTATION_RELATIONSHIP('','',#595,#11);
#11=ADVANCED_BREP_SHAPE_REPRESENTATION('',(#593),#1028);
#12=TOROIDAL_SURFACE('',#654,0.00923432862370649,0.0026556349186104);
#13=TOROIDAL_SURFACE('',#655,0.00923432862370649,0.0026556349186104);
#14=B_SPLINE_CURVE_WITH_KNOTS('',3,(#867,#868,#869,#870,#871,#872,#873,
#874,#875,#876),.UNSPECIFIED.,.F.,.F.,(4,1,1,1,1,1,1,4),(0.,0.00305329644718293,
0.00610659289436585,0.00915988934154878,0.0122131857887317,0.0152664822359146,
0.0183197786830976,0.0244263715774634),.UNSPECIFIED.);
#15=B_SPLINE_CURVE_WITH_KNOTS('',3,(#976,#977,#978,#979,#980,#981,#982),
 .UNSPECIFIED.,.F.,.F.,(4,1,1,1,4),(0.,0.00136686409208809,0.00273372818417617,
0.00410059227626426,0.00546745636835234),.UNSPECIFIED.);
#16=B_SPLINE_CURVE_WITH_KNOTS('',3,(#990,#991,#992,#993,#994,#995,#996),
 .UNSPECIFIED.,.F.,.F.,(4,1,1,1,4),(0.,0.00136686409208809,0.00273372818417617,
0.00410059227626426,0.00546745636835235),.UNSPECIFIED.);
#17=B_SPLINE_CURVE_WITH_KNOTS('',3,(#1002,#1003,#1004,#1005,#1006,#1007,
#1008),.UNSPECIFIED.,.F.,.F.,(4,1,1,1,4),(0.,0.00136686409208808,0.00273372818417617,
0.00410059227626425,0.00546745636835234),.UNSPECIFIED.);
#18=B_SPLINE_CURVE_WITH_KNOTS('',3,(#1012,#1013,#1014,#1015,#1016,#1017,
#1018),.UNSPECIFIED.,.F.,.F.,(4,1,1,1,4),(0.,0.0013668640920881,0.00273372818417619,
0.00410059227626429,0.00546745636835238),.UNSPECIFIED.);
#19=CYLINDRICAL_SURFACE('',#609,0.025);
#20=CYLINDRICAL_SURFACE('',#627,0.00325);
#21=CYLINDRICAL_SURFACE('',#638,0.00325);
#22=CYLINDRICAL_SURFACE('',#639,0.00325);
#23=CYLINDRICAL_SURFACE('',#640,0.0085);
#24=CYLINDRICAL_SURFACE('',#647,0.0118899635423169);
#25=CYLINDRICAL_SURFACE('',#652,0.0118899635423169);
#26=CYLINDRICAL_SURFACE('',#657,0.00923432862370649);
#27=ELLIPSE('',#600,0.05,0.025);
#28=ELLIPSE('',#602,0.05,0.025);
#29=ELLIPSE('',#606,0.05,0.025);
#30=ELLIPSE('',#608,0.05,0.025);
#31=ELLIPSE('',#611,0.0353553390593273,0.025);
#32=ELLIPSE('',#613,0.0353553390593273,0.025);
#33=ELLIPSE('',#615,0.0353553390593273,0.025);
#34=ELLIPSE('',#617,0.0353553390593273,0.025);
#35=LINE('',#832,#80);
#36=LINE('',#834,#81);
#37=LINE('',#836,#82);
#38=LINE('',#840,#83);
#39=LINE('',#842,#84);
#40=LINE('',#846,#85);
#41=LINE('',#848,#86);
#42=LINE('',#850,#87);
#43=LINE('',#854,#88);
#44=LINE('',#858,#89);
#45=LINE('',#860,#90);
#46=LINE('',#863,#91);
#47=LINE('',#885,#92);
#48=LINE('',#889,#93);
#49=LINE('',#899,#94);
#50=LINE('',#902,#95);
#51=LINE('',#906,#96);
#52=LINE('',#910,#97);
#53=LINE('',#913,#98);
#54=LINE('',#915,#99);
#55=LINE('',#921,#100);
#56=LINE('',#925,#101);
#57=LINE('',#926,#102);
#58=LINE('',#935,#103);
#59=LINE('',#938,#104);
#60=LINE('',#940,#105);
#61=LINE('',#942,#106);
#62=LINE('',#945,#107);
#63=LINE('',#946,#108);
#64=LINE('',#947,#109);
#65=LINE('',#948,#110);
#66=LINE('',#959,#111);
#67=LINE('',#962,#112);
#68=LINE('',#964,#113);
#69=LINE('',#966,#114);
#70=LINE('',#968,#115);
#71=LINE('',#969,#116);
#72=LINE('',#971,#117);
#73=LINE('',#973,#118);
#74=LINE('',#984,#119);
#75=LINE('',#988,#120);
#76=LINE('',#998,#121);
#77=LINE('',#1000,#122);
#78=LINE('',#1010,#123);
#79=LINE('',#1020,#124);
#80=VECTOR('',#664,1.);
#81=VECTOR('',#665,1.);
#82=VECTOR('',#666,1.);
#83=VECTOR('',#671,1.);
#84=VECTOR('',#672,1.);
#85=VECTOR('',#677,1.);
#86=VECTOR('',#678,1.);
#87=VECTOR('',#681,1.);
#88=VECTOR('',#684,1.);
#89=VECTOR('',#689,1.);
#90=VECTOR('',#690,1.);
#91=VECTOR('',#695,1.);
#92=VECTOR('',#706,1.);
#93=VECTOR('',#709,1.);
#94=VECTOR('',#720,1.);
#95=VECTOR('',#721,1.);
#96=VECTOR('',#724,1.);
#97=VECTOR('',#729,1.);
#98=VECTOR('',#730,1.);
#99=VECTOR('',#731,1.);
#100=VECTOR('',#738,1.);
#101=VECTOR('',#741,1.);
#102=VECTOR('',#742,1.);
#103=VECTOR('',#753,1.);
#104=VECTOR('',#754,1.);
#105=VECTOR('',#755,1.);
#106=VECTOR('',#756,1.);
#107=VECTOR('',#761,1.);
#108=VECTOR('',#762,1.);
#109=VECTOR('',#763,1.);
#110=VECTOR('',#764,1.);
#111=VECTOR('',#781,1.);
#112=VECTOR('',#782,1.);
#113=VECTOR('',#783,1.);
#114=VECTOR('',#784,1.);
#115=VECTOR('',#787,1.);
#116=VECTOR('',#788,1.);
#117=VECTOR('',#791,1.);
#118=VECTOR('',#794,1.);
#119=VECTOR('',#799,1.);
#120=VECTOR('',#804,1.);
#121=VECTOR('',#809,1.);
#122=VECTOR('',#810,1.);
#123=VECTOR('',#813,1.);
#124=VECTOR('',#814,1.);
#125=ORIENTED_EDGE('',*,*,#281,.F.);
#126=ORIENTED_EDGE('',*,*,#282,.T.);
#127=ORIENTED_EDGE('',*,*,#283,.F.);
#128=ORIENTED_EDGE('',*,*,#284,.F.);
#129=ORIENTED_EDGE('',*,*,#285,.F.);
#130=ORIENTED_EDGE('',*,*,#284,.T.);
#131=ORIENTED_EDGE('',*,*,#286,.F.);
#132=ORIENTED_EDGE('',*,*,#287,.F.);
#133=ORIENTED_EDGE('',*,*,#288,.F.);
#134=ORIENTED_EDGE('',*,*,#287,.T.);
#135=ORIENTED_EDGE('',*,*,#289,.F.);
#136=ORIENTED_EDGE('',*,*,#290,.F.);
#137=ORIENTED_EDGE('',*,*,#291,.F.);
#138=ORIENTED_EDGE('',*,*,#292,.F.);
#139=ORIENTED_EDGE('',*,*,#290,.T.);
#140=ORIENTED_EDGE('',*,*,#293,.F.);
#141=ORIENTED_EDGE('',*,*,#294,.F.);
#142=ORIENTED_EDGE('',*,*,#291,.T.);
#143=ORIENTED_EDGE('',*,*,#295,.F.);
#144=ORIENTED_EDGE('',*,*,#296,.F.);
#145=ORIENTED_EDGE('',*,*,#297,.F.);
#146=ORIENTED_EDGE('',*,*,#296,.T.);
#147=ORIENTED_EDGE('',*,*,#298,.F.);
#148=ORIENTED_EDGE('',*,*,#282,.F.);
#149=ORIENTED_EDGE('',*,*,#299,.T.);
#150=ORIENTED_EDGE('',*,*,#300,.F.);
#151=ORIENTED_EDGE('',*,*,#301,.F.);
#152=ORIENTED_EDGE('',*,*,#302,.T.);
#153=ORIENTED_EDGE('',*,*,#303,.F.);
#154=ORIENTED_EDGE('',*,*,#304,.F.);
#155=ORIENTED_EDGE('',*,*,#305,.F.);
#156=ORIENTED_EDGE('',*,*,#306,.F.);
#157=ORIENTED_EDGE('',*,*,#307,.T.);
#158=ORIENTED_EDGE('',*,*,#308,.T.);
#159=ORIENTED_EDGE('',*,*,#309,.T.);
#160=ORIENTED_EDGE('',*,*,#292,.T.);
#161=ORIENTED_EDGE('',*,*,#294,.T.);
#162=ORIENTED_EDGE('',*,*,#297,.T.);
#163=ORIENTED_EDGE('',*,*,#281,.T.);
#164=ORIENTED_EDGE('',*,*,#285,.T.);
#165=ORIENTED_EDGE('',*,*,#288,.T.);
#166=ORIENTED_EDGE('',*,*,#310,.T.);
#167=ORIENTED_EDGE('',*,*,#311,.T.);
#168=ORIENTED_EDGE('',*,*,#312,.T.);
#169=ORIENTED_EDGE('',*,*,#313,.F.);
#170=ORIENTED_EDGE('',*,*,#314,.F.);
#171=ORIENTED_EDGE('',*,*,#315,.F.);
#172=ORIENTED_EDGE('',*,*,#316,.F.);
#173=ORIENTED_EDGE('',*,*,#317,.F.);
#174=ORIENTED_EDGE('',*,*,#318,.T.);
#175=ORIENTED_EDGE('',*,*,#319,.T.);
#176=ORIENTED_EDGE('',*,*,#320,.T.);
#177=ORIENTED_EDGE('',*,*,#304,.T.);
#178=ORIENTED_EDGE('',*,*,#321,.T.);
#179=ORIENTED_EDGE('',*,*,#322,.T.);
#180=ORIENTED_EDGE('',*,*,#323,.T.);
#181=ORIENTED_EDGE('',*,*,#306,.T.);
#182=ORIENTED_EDGE('',*,*,#324,.T.);
#183=ORIENTED_EDGE('',*,*,#325,.F.);
#184=ORIENTED_EDGE('',*,*,#326,.F.);
#185=ORIENTED_EDGE('',*,*,#327,.T.);
#186=ORIENTED_EDGE('',*,*,#328,.F.);
#187=ORIENTED_EDGE('',*,*,#329,.T.);
#188=ORIENTED_EDGE('',*,*,#330,.T.);
#189=ORIENTED_EDGE('',*,*,#331,.F.);
#190=ORIENTED_EDGE('',*,*,#325,.T.);
#191=ORIENTED_EDGE('',*,*,#299,.F.);
#192=ORIENTED_EDGE('',*,*,#308,.F.);
#193=ORIENTED_EDGE('',*,*,#332,.T.);
#194=ORIENTED_EDGE('',*,*,#317,.T.);
#195=ORIENTED_EDGE('',*,*,#333,.F.);
#196=ORIENTED_EDGE('',*,*,#302,.F.);
#197=ORIENTED_EDGE('',*,*,#334,.F.);
#198=ORIENTED_EDGE('',*,*,#311,.F.);
#199=ORIENTED_EDGE('',*,*,#335,.T.);
#200=ORIENTED_EDGE('',*,*,#336,.F.);
#201=ORIENTED_EDGE('',*,*,#305,.T.);
#202=ORIENTED_EDGE('',*,*,#324,.F.);
#203=ORIENTED_EDGE('',*,*,#286,.T.);
#204=ORIENTED_EDGE('',*,*,#283,.T.);
#205=ORIENTED_EDGE('',*,*,#298,.T.);
#206=ORIENTED_EDGE('',*,*,#295,.T.);
#207=ORIENTED_EDGE('',*,*,#293,.T.);
#208=ORIENTED_EDGE('',*,*,#289,.T.);
#209=ORIENTED_EDGE('',*,*,#337,.F.);
#210=ORIENTED_EDGE('',*,*,#310,.F.);
#211=ORIENTED_EDGE('',*,*,#337,.T.);
#212=ORIENTED_EDGE('',*,*,#320,.F.);
#213=ORIENTED_EDGE('',*,*,#315,.T.);
#214=ORIENTED_EDGE('',*,*,#327,.F.);
#215=ORIENTED_EDGE('',*,*,#336,.T.);
#216=ORIENTED_EDGE('',*,*,#338,.F.);
#217=ORIENTED_EDGE('',*,*,#339,.T.);
#218=ORIENTED_EDGE('',*,*,#340,.T.);
#219=ORIENTED_EDGE('',*,*,#341,.F.);
#220=ORIENTED_EDGE('',*,*,#326,.T.);
#221=ORIENTED_EDGE('',*,*,#329,.F.);
#222=ORIENTED_EDGE('',*,*,#342,.F.);
#223=ORIENTED_EDGE('',*,*,#338,.T.);
#224=ORIENTED_EDGE('',*,*,#343,.T.);
#225=ORIENTED_EDGE('',*,*,#328,.T.);
#226=ORIENTED_EDGE('',*,*,#344,.F.);
#227=ORIENTED_EDGE('',*,*,#339,.F.);
#228=ORIENTED_EDGE('',*,*,#342,.T.);
#229=ORIENTED_EDGE('',*,*,#331,.T.);
#230=ORIENTED_EDGE('',*,*,#345,.F.);
#231=ORIENTED_EDGE('',*,*,#340,.F.);
#232=ORIENTED_EDGE('',*,*,#344,.T.);
#233=ORIENTED_EDGE('',*,*,#330,.F.);
#234=ORIENTED_EDGE('',*,*,#343,.F.);
#235=ORIENTED_EDGE('',*,*,#341,.T.);
#236=ORIENTED_EDGE('',*,*,#345,.T.);
#237=ORIENTED_EDGE('',*,*,#307,.F.);
#238=ORIENTED_EDGE('',*,*,#323,.F.);
#239=ORIENTED_EDGE('',*,*,#346,.T.);
#240=ORIENTED_EDGE('',*,*,#347,.T.);
#241=ORIENTED_EDGE('',*,*,#318,.F.);
#242=ORIENTED_EDGE('',*,*,#332,.F.);
#243=ORIENTED_EDGE('',*,*,#347,.F.);
#244=ORIENTED_EDGE('',*,*,#348,.T.);
#245=ORIENTED_EDGE('',*,*,#349,.T.);
#246=ORIENTED_EDGE('',*,*,#319,.F.);
#247=ORIENTED_EDGE('',*,*,#303,.T.);
#248=ORIENTED_EDGE('',*,*,#333,.T.);
#249=ORIENTED_EDGE('',*,*,#316,.T.);
#250=ORIENTED_EDGE('',*,*,#349,.F.);
#251=ORIENTED_EDGE('',*,*,#350,.T.);
#252=ORIENTED_EDGE('',*,*,#321,.F.);
#253=ORIENTED_EDGE('',*,*,#351,.F.);
#254=ORIENTED_EDGE('',*,*,#309,.F.);
#255=ORIENTED_EDGE('',*,*,#335,.F.);
#256=ORIENTED_EDGE('',*,*,#314,.T.);
#257=ORIENTED_EDGE('',*,*,#352,.T.);
#258=ORIENTED_EDGE('',*,*,#353,.T.);
#259=ORIENTED_EDGE('',*,*,#301,.T.);
#260=ORIENTED_EDGE('',*,*,#354,.T.);
#261=ORIENTED_EDGE('',*,*,#355,.T.);
#262=ORIENTED_EDGE('',*,*,#356,.F.);
#263=ORIENTED_EDGE('',*,*,#312,.F.);
#264=ORIENTED_EDGE('',*,*,#334,.T.);
#265=ORIENTED_EDGE('',*,*,#356,.T.);
#266=ORIENTED_EDGE('',*,*,#357,.T.);
#267=ORIENTED_EDGE('',*,*,#352,.F.);
#268=ORIENTED_EDGE('',*,*,#313,.T.);
#269=ORIENTED_EDGE('',*,*,#346,.F.);
#270=ORIENTED_EDGE('',*,*,#322,.F.);
#271=ORIENTED_EDGE('',*,*,#350,.F.);
#272=ORIENTED_EDGE('',*,*,#348,.F.);
#273=ORIENTED_EDGE('',*,*,#355,.F.);
#274=ORIENTED_EDGE('',*,*,#358,.F.);
#275=ORIENTED_EDGE('',*,*,#353,.F.);
#276=ORIENTED_EDGE('',*,*,#357,.F.);
#277=ORIENTED_EDGE('',*,*,#354,.F.);
#278=ORIENTED_EDGE('',*,*,#300,.T.);
#279=ORIENTED_EDGE('',*,*,#351,.T.);
#280=ORIENTED_EDGE('',*,*,#358,.T.);
#281=EDGE_CURVE('',#359,#360,#414,.F.);
#282=EDGE_CURVE('',#359,#361,#35,.T.);
#283=EDGE_CURVE('',#362,#361,#36,.T.);
#284=EDGE_CURVE('',#360,#362,#37,.T.);
#285=EDGE_CURVE('',#360,#363,#27,.F.);
#286=EDGE_CURVE('',#364,#362,#38,.T.);
#287=EDGE_CURVE('',#363,#364,#39,.T.);
#288=EDGE_CURVE('',#363,#365,#28,.F.);
#289=EDGE_CURVE('',#366,#364,#40,.T.);
#290=EDGE_CURVE('',#365,#366,#41,.T.);
#291=EDGE_CURVE('',#367,#368,#42,.T.);
#292=EDGE_CURVE('',#365,#367,#415,.F.);
#293=EDGE_CURVE('',#368,#366,#43,.T.);
#294=EDGE_CURVE('',#367,#369,#29,.F.);
#295=EDGE_CURVE('',#370,#368,#44,.T.);
#296=EDGE_CURVE('',#369,#370,#45,.T.);
#297=EDGE_CURVE('',#369,#359,#30,.F.);
#298=EDGE_CURVE('',#361,#370,#46,.T.);
#299=EDGE_CURVE('',#371,#371,#416,.T.);
#300=EDGE_CURVE('',#372,#373,#14,.T.);
#301=EDGE_CURVE('',#374,#372,#31,.T.);
#302=EDGE_CURVE('',#374,#375,#417,.T.);
#303=EDGE_CURVE('',#376,#375,#32,.T.);
#304=EDGE_CURVE('',#377,#376,#47,.F.);
#305=EDGE_CURVE('',#378,#377,#418,.T.);
#306=EDGE_CURVE('',#379,#378,#48,.T.);
#307=EDGE_CURVE('',#379,#380,#33,.T.);
#308=EDGE_CURVE('',#380,#381,#419,.T.);
#309=EDGE_CURVE('',#381,#373,#34,.T.);
#310=EDGE_CURVE('',#382,#382,#420,.F.);
#311=EDGE_CURVE('',#383,#384,#49,.T.);
#312=EDGE_CURVE('',#384,#385,#50,.T.);
#313=EDGE_CURVE('',#386,#385,#421,.F.);
#314=EDGE_CURVE('',#383,#386,#51,.T.);
#315=EDGE_CURVE('',#387,#387,#422,.F.);
#316=EDGE_CURVE('',#388,#389,#52,.T.);
#317=EDGE_CURVE('',#390,#388,#53,.T.);
#318=EDGE_CURVE('',#390,#391,#54,.T.);
#319=EDGE_CURVE('',#391,#389,#423,.F.);
#320=EDGE_CURVE('',#392,#392,#424,.F.);
#321=EDGE_CURVE('',#376,#393,#55,.T.);
#322=EDGE_CURVE('',#393,#394,#425,.T.);
#323=EDGE_CURVE('',#394,#379,#56,.T.);
#324=EDGE_CURVE('',#378,#377,#57,.T.);
#325=EDGE_CURVE('',#395,#395,#426,.T.);
#326=EDGE_CURVE('',#396,#396,#427,.F.);
#327=EDGE_CURVE('',#397,#397,#428,.T.);
#328=EDGE_CURVE('',#398,#399,#58,.T.);
#329=EDGE_CURVE('',#398,#400,#59,.T.);
#330=EDGE_CURVE('',#400,#401,#60,.T.);
#331=EDGE_CURVE('',#399,#401,#61,.T.);
#332=EDGE_CURVE('',#380,#390,#62,.T.);
#333=EDGE_CURVE('',#375,#388,#63,.T.);
#334=EDGE_CURVE('',#384,#374,#64,.T.);
#335=EDGE_CURVE('',#383,#381,#65,.T.);
#336=EDGE_CURVE('',#402,#402,#429,.T.);
#337=EDGE_CURVE('',#403,#403,#430,.F.);
#338=EDGE_CURVE('',#404,#405,#66,.T.);
#339=EDGE_CURVE('',#404,#406,#67,.T.);
#340=EDGE_CURVE('',#406,#407,#68,.T.);
#341=EDGE_CURVE('',#405,#407,#69,.T.);
#342=EDGE_CURVE('',#404,#398,#70,.T.);
#343=EDGE_CURVE('',#405,#400,#71,.T.);
#344=EDGE_CURVE('',#406,#399,#72,.T.);
#345=EDGE_CURVE('',#407,#401,#73,.T.);
#346=EDGE_CURVE('',#394,#408,#15,.F.);
#347=EDGE_CURVE('',#408,#391,#74,.T.);
#348=EDGE_CURVE('',#408,#409,#431,.F.);
#349=EDGE_CURVE('',#409,#389,#75,.T.);
#350=EDGE_CURVE('',#409,#393,#16,.T.);
#351=EDGE_CURVE('',#373,#410,#76,.T.);
#352=EDGE_CURVE('',#386,#411,#77,.T.);
#353=EDGE_CURVE('',#411,#410,#17,.T.);
#354=EDGE_CURVE('',#372,#412,#78,.T.);
#355=EDGE_CURVE('',#412,#413,#18,.F.);
#356=EDGE_CURVE('',#385,#413,#79,.T.);
#357=EDGE_CURVE('',#413,#411,#432,.T.);
#358=EDGE_CURVE('',#410,#412,#433,.F.);
#359=VERTEX_POINT('',#830);
#360=VERTEX_POINT('',#831);
#361=VERTEX_POINT('',#833);
#362=VERTEX_POINT('',#835);
#363=VERTEX_POINT('',#839);
#364=VERTEX_POINT('',#841);
#365=VERTEX_POINT('',#845);
#366=VERTEX_POINT('',#847);
#367=VERTEX_POINT('',#851);
#368=VERTEX_POINT('',#852);
#369=VERTEX_POINT('',#857);
#370=VERTEX_POINT('',#859);
#371=VERTEX_POINT('',#866);
#372=VERTEX_POINT('',#877);
#373=VERTEX_POINT('',#878);
#374=VERTEX_POINT('',#880);
#375=VERTEX_POINT('',#882);
#376=VERTEX_POINT('',#884);
#377=VERTEX_POINT('',#886);
#378=VERTEX_POINT('',#888);
#379=VERTEX_POINT('',#890);
#380=VERTEX_POINT('',#892);
#381=VERTEX_POINT('',#894);
#382=VERTEX_POINT('',#898);
#383=VERTEX_POINT('',#900);
#384=VERTEX_POINT('',#901);
#385=VERTEX_POINT('',#903);
#386=VERTEX_POINT('',#905);
#387=VERTEX_POINT('',#909);
#388=VERTEX_POINT('',#911);
#389=VERTEX_POINT('',#912);
#390=VERTEX_POINT('',#914);
#391=VERTEX_POINT('',#916);
#392=VERTEX_POINT('',#920);
#393=VERTEX_POINT('',#922);
#394=VERTEX_POINT('',#924);
#395=VERTEX_POINT('',#929);
#396=VERTEX_POINT('',#931);
#397=VERTEX_POINT('',#934);
#398=VERTEX_POINT('',#936);
#399=VERTEX_POINT('',#937);
#400=VERTEX_POINT('',#939);
#401=VERTEX_POINT('',#941);
#402=VERTEX_POINT('',#950);
#403=VERTEX_POINT('',#954);
#404=VERTEX_POINT('',#960);
#405=VERTEX_POINT('',#961);
#406=VERTEX_POINT('',#963);
#407=VERTEX_POINT('',#965);
#408=VERTEX_POINT('',#983);
#409=VERTEX_POINT('',#987);
#410=VERTEX_POINT('',#999);
#411=VERTEX_POINT('',#1001);
#412=VERTEX_POINT('',#1011);
#413=VERTEX_POINT('',#1019);
#414=CIRCLE('',#598,0.025);
#415=CIRCLE('',#604,0.025);
#416=CIRCLE('',#610,0.025);
#417=CIRCLE('',#612,0.025);
#418=CIRCLE('',#614,0.025);
#419=CIRCLE('',#616,0.025);
#420=CIRCLE('',#619,0.00325);
#421=CIRCLE('',#620,0.0118899635423169);
#422=CIRCLE('',#622,0.00325);
#423=CIRCLE('',#623,0.0118899635423169);
#424=CIRCLE('',#625,0.00325);
#425=CIRCLE('',#626,0.00923432862370649);
#426=CIRCLE('',#628,0.00325);
#427=CIRCLE('',#629,0.00325);
#428=CIRCLE('',#631,0.0085);
#429=CIRCLE('',#634,0.0085);
#430=CIRCLE('',#637,0.00325);
#431=CIRCLE('',#648,0.0118899635423169);
#432=CIRCLE('',#653,0.0118899635423169);
#433=CIRCLE('',#656,0.00923432862370649);
#434=EDGE_LOOP('',(#125,#126,#127,#128));
#435=EDGE_LOOP('',(#129,#130,#131,#132));
#436=EDGE_LOOP('',(#133,#134,#135,#136));
#437=EDGE_LOOP('',(#137,#138,#139,#140));
#438=EDGE_LOOP('',(#141,#142,#143,#144));
#439=EDGE_LOOP('',(#145,#146,#147,#148));
#440=EDGE_LOOP('',(#149));
#441=EDGE_LOOP('',(#150,#151,#152,#153,#154,#155,#156,#157,#158,#159));
#442=EDGE_LOOP('',(#160,#161,#162,#163,#164,#165));
#443=EDGE_LOOP('',(#166));
#444=EDGE_LOOP('',(#167,#168,#169,#170));
#445=EDGE_LOOP('',(#171));
#446=EDGE_LOOP('',(#172,#173,#174,#175));
#447=EDGE_LOOP('',(#176));
#448=EDGE_LOOP('',(#177,#178,#179,#180,#181,#182));
#449=EDGE_LOOP('',(#183));
#450=EDGE_LOOP('',(#184));
#451=EDGE_LOOP('',(#185));
#452=EDGE_LOOP('',(#186,#187,#188,#189));
#453=EDGE_LOOP('',(#190));
#454=EDGE_LOOP('',(#191));
#455=EDGE_LOOP('',(#192,#193,#194,#195,#196,#197,#198,#199));
#456=EDGE_LOOP('',(#200));
#457=EDGE_LOOP('',(#201,#202));
#458=EDGE_LOOP('',(#203,#204,#205,#206,#207,#208));
#459=EDGE_LOOP('',(#209));
#460=EDGE_LOOP('',(#210));
#461=EDGE_LOOP('',(#211));
#462=EDGE_LOOP('',(#212));
#463=EDGE_LOOP('',(#213));
#464=EDGE_LOOP('',(#214));
#465=EDGE_LOOP('',(#215));
#466=EDGE_LOOP('',(#216,#217,#218,#219));
#467=EDGE_LOOP('',(#220));
#468=EDGE_LOOP('',(#221,#222,#223,#224));
#469=EDGE_LOOP('',(#225,#226,#227,#228));
#470=EDGE_LOOP('',(#229,#230,#231,#232));
#471=EDGE_LOOP('',(#233,#234,#235,#236));
#472=EDGE_LOOP('',(#237,#238,#239,#240,#241,#242));
#473=EDGE_LOOP('',(#243,#244,#245,#246));
#474=EDGE_LOOP('',(#247,#248,#249,#250,#251,#252));
#475=EDGE_LOOP('',(#253,#254,#255,#256,#257,#258));
#476=EDGE_LOOP('',(#259,#260,#261,#262,#263,#264));
#477=EDGE_LOOP('',(#265,#266,#267,#268));
#478=EDGE_LOOP('',(#269,#270,#271,#272));
#479=EDGE_LOOP('',(#273,#274,#275,#276));
#480=EDGE_LOOP('',(#277,#278,#279,#280));
#481=FACE_BOUND('',#434,.T.);
#482=FACE_BOUND('',#435,.T.);
#483=FACE_BOUND('',#436,.T.);
#484=FACE_BOUND('',#437,.T.);
#485=FACE_BOUND('',#438,.T.);
#486=FACE_BOUND('',#439,.T.);
#487=FACE_BOUND('',#440,.T.);
#488=FACE_BOUND('',#441,.T.);
#489=FACE_BOUND('',#442,.T.);
#490=FACE_BOUND('',#443,.T.);
#491=FACE_BOUND('',#444,.T.);
#492=FACE_BOUND('',#445,.T.);
#493=FACE_BOUND('',#446,.T.);
#494=FACE_BOUND('',#447,.T.);
#495=FACE_BOUND('',#448,.T.);
#496=FACE_BOUND('',#449,.T.);
#497=FACE_BOUND('',#450,.T.);
#498=FACE_BOUND('',#451,.T.);
#499=FACE_BOUND('',#452,.T.);
#500=FACE_BOUND('',#453,.T.);
#501=FACE_BOUND('',#454,.T.);
#502=FACE_BOUND('',#455,.T.);
#503=FACE_BOUND('',#456,.T.);
#504=FACE_BOUND('',#457,.T.);
#505=FACE_BOUND('',#458,.T.);
#506=FACE_BOUND('',#459,.T.);
#507=FACE_BOUND('',#460,.T.);
#508=FACE_BOUND('',#461,.T.);
#509=FACE_BOUND('',#462,.T.);
#510=FACE_BOUND('',#463,.T.);
#511=FACE_BOUND('',#464,.T.);
#512=FACE_BOUND('',#465,.T.);
#513=FACE_BOUND('',#466,.T.);
#514=FACE_BOUND('',#467,.T.);
#515=FACE_BOUND('',#468,.T.);
#516=FACE_BOUND('',#469,.T.);
#517=FACE_BOUND('',#470,.T.);
#518=FACE_BOUND('',#471,.T.);
#519=FACE_BOUND('',#472,.T.);
#520=FACE_BOUND('',#473,.T.);
#521=FACE_BOUND('',#474,.T.);
#522=FACE_BOUND('',#475,.T.);
#523=FACE_BOUND('',#476,.T.);
#524=FACE_BOUND('',#477,.T.);
#525=FACE_BOUND('',#478,.T.);
#526=FACE_BOUND('',#479,.T.);
#527=FACE_BOUND('',#480,.T.);
#528=PLANE('',#597);
#529=PLANE('',#599);
#530=PLANE('',#601);
#531=PLANE('',#603);
#532=PLANE('',#605);
#533=PLANE('',#607);
#534=PLANE('',#618);
#535=PLANE('',#621);
#536=PLANE('',#624);
#537=PLANE('',#630);
#538=PLANE('',#632);
#539=PLANE('',#633);
#540=PLANE('',#635);
#541=PLANE('',#636);
#542=PLANE('',#641);
#543=PLANE('',#642);
#544=PLANE('',#643);
#545=PLANE('',#644);
#546=PLANE('',#645);
#547=PLANE('',#646);
#548=PLANE('',#649);
#549=PLANE('',#650);
#550=PLANE('',#651);
#551=ADVANCED_FACE('',(#481),#528,.T.);
#552=ADVANCED_FACE('',(#482),#529,.T.);
#553=ADVANCED_FACE('',(#483),#530,.T.);
#554=ADVANCED_FACE('',(#484),#531,.T.);
#555=ADVANCED_FACE('',(#485),#532,.T.);
#556=ADVANCED_FACE('',(#486),#533,.T.);
#557=ADVANCED_FACE('',(#487,#488,#489),#19,.T.);
#558=ADVANCED_FACE('',(#490,#491),#534,.T.);
#559=ADVANCED_FACE('',(#492,#493),#535,.F.);
#560=ADVANCED_FACE('',(#494,#495),#536,.T.);
#561=ADVANCED_FACE('',(#496,#497),#20,.F.);
#562=ADVANCED_FACE('',(#498,#499),#537,.T.);
#563=ADVANCED_FACE('',(#500,#501),#538,.F.);
#564=ADVANCED_FACE('',(#502,#503),#539,.F.);
#565=ADVANCED_FACE('',(#504),#540,.T.);
#566=ADVANCED_FACE('',(#505,#506),#541,.F.);
#567=ADVANCED_FACE('',(#507,#508),#21,.F.);
#568=ADVANCED_FACE('',(#509,#510),#22,.F.);
#569=ADVANCED_FACE('',(#511,#512),#23,.F.);
#570=ADVANCED_FACE('',(#513,#514),#542,.T.);
#571=ADVANCED_FACE('',(#515),#543,.T.);
#572=ADVANCED_FACE('',(#516),#544,.F.);
#573=ADVANCED_FACE('',(#517),#545,.F.);
#574=ADVANCED_FACE('',(#518),#546,.T.);
#575=ADVANCED_FACE('',(#519),#547,.F.);
#576=ADVANCED_FACE('',(#520),#24,.T.);
#577=ADVANCED_FACE('',(#521),#548,.T.);
#578=ADVANCED_FACE('',(#522),#549,.F.);
#579=ADVANCED_FACE('',(#523),#550,.T.);
#580=ADVANCED_FACE('',(#524),#25,.T.);
#581=ADVANCED_FACE('',(#525),#12,.T.);
#582=ADVANCED_FACE('',(#526),#13,.T.);
#583=ADVANCED_FACE('',(#527),#26,.T.);
#584=CLOSED_SHELL('',(#551,#552,#553,#554,#555,#556,#557,#558,#559,#560,
#561,#562,#563,#564,#565,#566,#567,#568,#569,#570,#571,#572,#573,#574,#575,
#576,#577,#578,#579,#580,#581,#582,#583));
#585=STYLED_ITEM('',(#586),#593);
#586=PRESENTATION_STYLE_ASSIGNMENT((#587));
#587=SURFACE_STYLE_USAGE(.BOTH.,#588);
#588=SURFACE_SIDE_STYLE('',(#589));
#589=SURFACE_STYLE_FILL_AREA(#590);
#590=FILL_AREA_STYLE('',(#591));
#591=FILL_AREA_STYLE_COLOUR('',#592);
#592=COLOUR_RGB('',0.4,0.4,0.4);
#593=MANIFOLD_SOLID_BREP('Part 1',#584);
#594=SHAPE_DEFINITION_REPRESENTATION(#1033,#595);
#595=SHAPE_REPRESENTATION('Part 1',(#596),#1028);
#596=AXIS2_PLACEMENT_3D('',#827,#658,#659);
#597=AXIS2_PLACEMENT_3D('',#828,#660,#661);
#598=AXIS2_PLACEMENT_3D('',#829,#662,#663);
#599=AXIS2_PLACEMENT_3D('',#837,#667,#668);
#600=AXIS2_PLACEMENT_3D('',#838,#669,#670);
#601=AXIS2_PLACEMENT_3D('',#843,#673,#674);
#602=AXIS2_PLACEMENT_3D('',#844,#675,#676);
#603=AXIS2_PLACEMENT_3D('',#849,#679,#680);
#604=AXIS2_PLACEMENT_3D('',#853,#682,#683);
#605=AXIS2_PLACEMENT_3D('',#855,#685,#686);
#606=AXIS2_PLACEMENT_3D('',#856,#687,#688);
#607=AXIS2_PLACEMENT_3D('',#861,#691,#692);
#608=AXIS2_PLACEMENT_3D('',#862,#693,#694);
#609=AXIS2_PLACEMENT_3D('',#864,#696,#697);
#610=AXIS2_PLACEMENT_3D('',#865,#698,#699);
#611=AXIS2_PLACEMENT_3D('',#879,#700,#701);
#612=AXIS2_PLACEMENT_3D('',#881,#702,#703);
#613=AXIS2_PLACEMENT_3D('',#883,#704,#705);
#614=AXIS2_PLACEMENT_3D('',#887,#707,#708);
#615=AXIS2_PLACEMENT_3D('',#891,#710,#711);
#616=AXIS2_PLACEMENT_3D('',#893,#712,#713);
#617=AXIS2_PLACEMENT_3D('',#895,#714,#715);
#618=AXIS2_PLACEMENT_3D('',#896,#716,#717);
#619=AXIS2_PLACEMENT_3D('',#897,#718,#719);
#620=AXIS2_PLACEMENT_3D('',#904,#722,#723);
#621=AXIS2_PLACEMENT_3D('',#907,#725,#726);
#622=AXIS2_PLACEMENT_3D('',#908,#727,#728);
#623=AXIS2_PLACEMENT_3D('',#917,#732,#733);
#624=AXIS2_PLACEMENT_3D('',#918,#734,#735);
#625=AXIS2_PLACEMENT_3D('',#919,#736,#737);
#626=AXIS2_PLACEMENT_3D('',#923,#739,#740);
#627=AXIS2_PLACEMENT_3D('',#927,#743,#744);
#628=AXIS2_PLACEMENT_3D('',#928,#745,#746);
#629=AXIS2_PLACEMENT_3D('',#930,#747,#748);
#630=AXIS2_PLACEMENT_3D('',#932,#749,#750);
#631=AXIS2_PLACEMENT_3D('',#933,#751,#752);
#632=AXIS2_PLACEMENT_3D('',#943,#757,#758);
#633=AXIS2_PLACEMENT_3D('',#944,#759,#760);
#634=AXIS2_PLACEMENT_3D('',#949,#765,#766);
#635=AXIS2_PLACEMENT_3D('',#951,#767,#768);
#636=AXIS2_PLACEMENT_3D('',#952,#769,#770);
#637=AXIS2_PLACEMENT_3D('',#953,#771,#772);
#638=AXIS2_PLACEMENT_3D('',#955,#773,#774);
#639=AXIS2_PLACEMENT_3D('',#956,#775,#776);
#640=AXIS2_PLACEMENT_3D('',#957,#777,#778);
#641=AXIS2_PLACEMENT_3D('',#958,#779,#780);
#642=AXIS2_PLACEMENT_3D('',#967,#785,#786);
#643=AXIS2_PLACEMENT_3D('',#970,#789,#790);
#644=AXIS2_PLACEMENT_3D('',#972,#792,#793);
#645=AXIS2_PLACEMENT_3D('',#974,#795,#796);
#646=AXIS2_PLACEMENT_3D('',#975,#797,#798);
#647=AXIS2_PLACEMENT_3D('',#985,#800,#801);
#648=AXIS2_PLACEMENT_3D('',#986,#802,#803);
#649=AXIS2_PLACEMENT_3D('',#989,#805,#806);
#650=AXIS2_PLACEMENT_3D('',#997,#807,#808);
#651=AXIS2_PLACEMENT_3D('',#1009,#811,#812);
#652=AXIS2_PLACEMENT_3D('',#1021,#815,#816);
#653=AXIS2_PLACEMENT_3D('',#1022,#817,#818);
#654=AXIS2_PLACEMENT_3D('',#1023,#819,#820);
#655=AXIS2_PLACEMENT_3D('',#1024,#821,#822);
#656=AXIS2_PLACEMENT_3D('',#1025,#823,#824);
#657=AXIS2_PLACEMENT_3D('',#1026,#825,#826);
#658=DIRECTION('',(0.,0.,1.));
#659=DIRECTION('',(1.,0.,0.));
#660=DIRECTION('',(1.7347234759768E-16,0.,-1.));
#661=DIRECTION('',(-1.,0.,-1.7347234759768E-16));
#662=DIRECTION('',(1.7347234759768E-16,0.,-1.));
#663=DIRECTION('',(-1.,0.,-1.7347234759768E-16));
#664=DIRECTION('',(-1.,0.,-1.7347234759768E-16));
#665=DIRECTION('',(0.,-1.,0.));
#666=DIRECTION('',(-1.,0.,-1.7347234759768E-16));
#667=DIRECTION('',(8.67361737988404E-17,-0.866025403784438,-0.5));
#668=DIRECTION('',(0.,0.5,-0.866025403784439));
#669=DIRECTION('',(8.67361737988404E-17,-0.866025403784438,-0.5));
#670=DIRECTION('',(-5.00771532912387E-17,0.5,-0.866025403784439));
#671=DIRECTION('',(-1.50231459873716E-16,-0.5,0.866025403784439));
#672=DIRECTION('',(-1.,0.,-1.7347234759768E-16));
#673=DIRECTION('',(-8.67361737988404E-17,-0.866025403784438,0.5));
#674=DIRECTION('',(0.,-0.5,-0.866025403784439));
#675=DIRECTION('',(-8.67361737988404E-17,-0.866025403784438,0.5));
#676=DIRECTION('',(-5.00771532912387E-17,-0.5,-0.866025403784439));
#677=DIRECTION('',(-1.50231459873716E-16,0.5,0.866025403784439));
#678=DIRECTION('',(-1.,0.,-1.7347234759768E-16));
#679=DIRECTION('',(-1.7347234759768E-16,0.,1.));
#680=DIRECTION('',(1.,0.,1.7347234759768E-16));
#681=DIRECTION('',(-1.,0.,-1.7347234759768E-16));
#682=DIRECTION('',(-1.7347234759768E-16,0.,1.));
#683=DIRECTION('',(1.,0.,1.7347234759768E-16));
#684=DIRECTION('',(0.,1.,0.));
#685=DIRECTION('',(-8.67361737988403E-17,0.866025403784439,0.5));
#686=DIRECTION('',(0.,-0.5,0.866025403784439));
#687=DIRECTION('',(-8.67361737988403E-17,0.866025403784439,0.5));
#688=DIRECTION('',(-5.00771532912386E-17,0.5,-0.866025403784439));
#689=DIRECTION('',(1.50231459873716E-16,0.5,-0.866025403784439));
#690=DIRECTION('',(-1.,0.,-1.7347234759768E-16));
#691=DIRECTION('',(8.67361737988404E-17,0.866025403784439,-0.5));
#692=DIRECTION('',(0.,0.5,0.866025403784439));
#693=DIRECTION('',(8.67361737988404E-17,0.866025403784439,-0.5));
#694=DIRECTION('',(-5.00771532912387E-17,-0.5,-0.866025403784439));
#695=DIRECTION('',(1.50231459873716E-16,-0.5,-0.866025403784439));
#696=DIRECTION('',(0.,0.,-1.));
#697=DIRECTION('',(-1.,0.,0.));
#698=DIRECTION('',(0.,0.,1.));
#699=DIRECTION('',(1.,0.,0.));
#700=DIRECTION('',(-1.2266347333467E-16,-0.707106781186548,0.707106781186548));
#701=DIRECTION('',(-1.2266347333467E-16,-0.707106781186548,-0.707106781186548));
#702=DIRECTION('',(0.,0.,-1.));
#703=DIRECTION('',(-1.,0.,0.));
#704=DIRECTION('',(-1.2266347333467E-16,-0.707106781186548,0.707106781186548));
#705=DIRECTION('',(-1.2266347333467E-16,-0.707106781186548,-0.707106781186548));
#706=DIRECTION('',(0.,0.,-1.));
#707=DIRECTION('',(0.,0.,1.));
#708=DIRECTION('',(1.,0.,0.));
#709=DIRECTION('',(0.,0.,-1.));
#710=DIRECTION('',(1.2266347333467E-16,-0.707106781186547,-0.707106781186548));
#711=DIRECTION('',(-1.2266347333467E-16,0.707106781186548,-0.707106781186547));
#712=DIRECTION('',(0.,0.,-1.));
#713=DIRECTION('',(-1.,0.,0.));
#714=DIRECTION('',(1.2266347333467E-16,-0.707106781186547,-0.707106781186548));
#715=DIRECTION('',(-1.2266347333467E-16,0.707106781186548,-0.707106781186547));
#716=DIRECTION('',(-1.,0.,0.));
#717=DIRECTION('',(0.,0.,1.));
#718=DIRECTION('',(-1.,0.,0.));
#719=DIRECTION('',(0.,0.,1.));
#720=DIRECTION('',(0.,-1.,0.));
#721=DIRECTION('',(0.,0.707106781186548,0.707106781186548));
#722=DIRECTION('',(-1.,0.,0.));
#723=DIRECTION('',(0.,0.,1.));
#724=DIRECTION('',(0.,-0.707106781186548,0.707106781186547));
#725=DIRECTION('',(-1.,0.,0.));
#726=DIRECTION('',(0.,0.,1.));
#727=DIRECTION('',(-1.,0.,0.));
#728=DIRECTION('',(0.,0.,1.));
#729=DIRECTION('',(0.,0.707106781186548,0.707106781186548));
#730=DIRECTION('',(0.,-1.,0.));
#731=DIRECTION('',(0.,-0.707106781186548,0.707106781186547));
#732=DIRECTION('',(-1.,0.,0.));
#733=DIRECTION('',(0.,0.,1.));
#734=DIRECTION('',(-1.,0.,0.));
#735=DIRECTION('',(0.,0.,1.));
#736=DIRECTION('',(-1.,0.,0.));
#737=DIRECTION('',(0.,0.,1.));
#738=DIRECTION('',(0.,0.707106781186548,0.707106781186548));
#739=DIRECTION('',(-1.,0.,0.));
#740=DIRECTION('',(0.,0.,1.));
#741=DIRECTION('',(0.,0.707106781186548,-0.707106781186547));
#742=DIRECTION('',(0.,-1.,0.));
#743=DIRECTION('',(0.,0.,1.));
#744=DIRECTION('',(1.,0.,0.));
#745=DIRECTION('',(0.,0.,1.));
#746=DIRECTION('',(1.,0.,0.));
#747=DIRECTION('',(0.,0.,1.));
#748=DIRECTION('',(1.,0.,0.));
#749=DIRECTION('',(0.,0.,1.));
#750=DIRECTION('',(1.,0.,0.));
#751=DIRECTION('',(0.,0.,1.));
#752=DIRECTION('',(1.,0.,0.));
#753=DIRECTION('',(-1.,0.,0.));
#754=DIRECTION('',(-6.19544098563146E-17,-1.,0.));
#755=DIRECTION('',(-1.,0.,0.));
#756=DIRECTION('',(-6.19544098563146E-17,-1.,0.));
#757=DIRECTION('',(0.,0.,1.));
#758=DIRECTION('',(1.,0.,0.));
#759=DIRECTION('',(0.,0.,-1.));
#760=DIRECTION('',(-1.,0.,0.));
#761=DIRECTION('',(1.,0.,1.7347234759768E-16));
#762=DIRECTION('',(1.,0.,1.7347234759768E-16));
#763=DIRECTION('',(1.,0.,1.7347234759768E-16));
#764=DIRECTION('',(1.,0.,1.7347234759768E-16));
#765=DIRECTION('',(0.,0.,1.));
#766=DIRECTION('',(1.,0.,0.));
#767=DIRECTION('',(0.,0.,1.));
#768=DIRECTION('',(1.,0.,0.));
#769=DIRECTION('',(-1.,0.,-1.7347234759768E-16));
#770=DIRECTION('',(-1.7347234759768E-16,0.,1.));
#771=DIRECTION('',(-1.,0.,-1.7347234759768E-16));
#772=DIRECTION('',(-1.7347234759768E-16,0.,1.));
#773=DIRECTION('',(1.,0.,0.));
#774=DIRECTION('',(0.,0.,-1.));
#775=DIRECTION('',(1.,0.,0.));
#776=DIRECTION('',(0.,0.,-1.));
#777=DIRECTION('',(0.,0.,1.));
#778=DIRECTION('',(1.,0.,0.));
#779=DIRECTION('',(0.,0.,1.));
#780=DIRECTION('',(1.,0.,0.));
#781=DIRECTION('',(-6.19544098563146E-17,-1.,0.));
#782=DIRECTION('',(-1.,0.,0.));
#783=DIRECTION('',(-6.19544098563146E-17,-1.,0.));
#784=DIRECTION('',(-1.,0.,0.));
#785=DIRECTION('',(-1.,6.19544098563146E-17,0.));
#786=DIRECTION('',(-6.19544098563146E-17,-1.,0.));
#787=DIRECTION('',(0.,0.,1.));
#788=DIRECTION('',(0.,0.,1.));
#789=DIRECTION('',(0.,1.,0.));
#790=DIRECTION('',(0.,0.,1.));
#791=DIRECTION('',(0.,0.,1.));
#792=DIRECTION('',(-1.,6.19544098563146E-17,0.));
#793=DIRECTION('',(-6.19544098563146E-17,-1.,0.));
#794=DIRECTION('',(0.,0.,1.));
#795=DIRECTION('',(0.,1.,0.));
#796=DIRECTION('',(0.,0.,1.));
#797=DIRECTION('',(1.2266347333467E-16,-0.707106781186547,-0.707106781186548));
#798=DIRECTION('',(0.,0.707106781186548,-0.707106781186547));
#799=DIRECTION('',(1.,0.,1.7347234759768E-16));
#800=DIRECTION('',(1.,0.,1.7347234759768E-16));
#801=DIRECTION('',(1.7347234759768E-16,0.,-1.));
#802=DIRECTION('',(-1.,0.,0.));
#803=DIRECTION('',(0.,0.,1.));
#804=DIRECTION('',(1.,0.,1.7347234759768E-16));
#805=DIRECTION('',(-1.2266347333467E-16,-0.707106781186548,0.707106781186548));
#806=DIRECTION('',(0.,-0.707106781186548,-0.707106781186548));
#807=DIRECTION('',(1.2266347333467E-16,-0.707106781186547,-0.707106781186548));
#808=DIRECTION('',(0.,0.707106781186548,-0.707106781186547));
#809=DIRECTION('',(-1.,0.,-1.7347234759768E-16));
#810=DIRECTION('',(1.,0.,1.7347234759768E-16));
#811=DIRECTION('',(-1.2266347333467E-16,-0.707106781186548,0.707106781186548));
#812=DIRECTION('',(0.,-0.707106781186548,-0.707106781186548));
#813=DIRECTION('',(-1.,0.,-1.7347234759768E-16));
#814=DIRECTION('',(1.,0.,1.7347234759768E-16));
#815=DIRECTION('',(1.,0.,1.7347234759768E-16));
#816=DIRECTION('',(1.7347234759768E-16,0.,-1.));
#817=DIRECTION('',(-1.,0.,-1.7347234759768E-16));
#818=DIRECTION('',(-1.7347234759768E-16,0.,1.));
#819=DIRECTION('',(-1.,0.,0.));
#820=DIRECTION('',(0.,0.,1.));
#821=DIRECTION('',(-1.,0.,-1.7347234759768E-16));
#822=DIRECTION('',(-1.7347234759768E-16,0.,1.));
#823=DIRECTION('',(-1.,0.,-1.7347234759768E-16));
#824=DIRECTION('',(-1.7347234759768E-16,0.,1.));
#825=DIRECTION('',(-1.,0.,-1.7347234759768E-16));
#826=DIRECTION('',(-1.7347234759768E-16,0.,1.));
#827=CARTESIAN_POINT('',(0.,0.,0.));
#828=CARTESIAN_POINT('',(0.025,0.,0.0466092889606953));
#829=CARTESIAN_POINT('',(0.,1.53080849893419E-18,0.0466092889606953));
#830=CARTESIAN_POINT('',(0.0247588368062799,-0.00346410161513776,0.0466092889606953));
#831=CARTESIAN_POINT('',(0.0247588368062799,0.00346410161513775,0.0466092889606953));
#832=CARTESIAN_POINT('',(0.025,-0.00346410161513776,0.0466092889606953));
#833=CARTESIAN_POINT('',(0.022,-0.00346410161513776,0.0466092889606953));
#834=CARTESIAN_POINT('',(0.022,0.,0.0466092889606953));
#835=CARTESIAN_POINT('',(0.022,0.00346410161513775,0.0466092889606953));
#836=CARTESIAN_POINT('',(0.025,0.00346410161513775,0.0466092889606953));
#837=CARTESIAN_POINT('',(0.025,0.00519615242270663,0.0436092889606953));
#838=CARTESIAN_POINT('',(0.,1.53080849893419E-18,0.0526092889606953));
#839=CARTESIAN_POINT('',(0.0240208242989286,0.00692820323027551,0.0406092889606953));
#840=CARTESIAN_POINT('',(0.022,0.00519615242270663,0.0436092889606953));
#841=CARTESIAN_POINT('',(0.022,0.00692820323027551,0.0406092889606953));
#842=CARTESIAN_POINT('',(0.025,0.00692820323027551,0.0406092889606953));
#843=CARTESIAN_POINT('',(0.025,0.00519615242270664,0.0376092889606953));
#844=CARTESIAN_POINT('',(0.,1.53080849893419E-18,0.0286092889606953));
#845=CARTESIAN_POINT('',(0.0247588368062799,0.00346410161513775,0.0346092889606952));
#846=CARTESIAN_POINT('',(0.022,0.00519615242270664,0.0376092889606953));
#847=CARTESIAN_POINT('',(0.022,0.00346410161513775,0.0346092889606952));
#848=CARTESIAN_POINT('',(0.025,0.00346410161513775,0.0346092889606952));
#849=CARTESIAN_POINT('',(0.025,-8.67361737988404E-19,0.0346092889606953));
#850=CARTESIAN_POINT('',(0.025,-0.00346410161513776,0.0346092889606953));
#851=CARTESIAN_POINT('',(0.0247588368062799,-0.00346410161513776,0.0346092889606953));
#852=CARTESIAN_POINT('',(0.022,-0.00346410161513776,0.0346092889606953));
#853=CARTESIAN_POINT('',(0.,1.53080849893419E-18,0.0346092889606953));
#854=CARTESIAN_POINT('',(0.022,-8.67361737988404E-19,0.0346092889606953));
#855=CARTESIAN_POINT('',(0.025,-0.00519615242270664,0.0376092889606953));
#856=CARTESIAN_POINT('',(0.,1.53080849893419E-18,0.0286092889606953));
#857=CARTESIAN_POINT('',(0.0240208242989286,-0.00692820323027552,0.0406092889606953));
#858=CARTESIAN_POINT('',(0.022,-0.00519615242270664,0.0376092889606953));
#859=CARTESIAN_POINT('',(0.022,-0.00692820323027552,0.0406092889606953));
#860=CARTESIAN_POINT('',(0.025,-0.00692820323027552,0.0406092889606953));
#861=CARTESIAN_POINT('',(0.025,-0.00519615242270664,0.0436092889606953));
#862=CARTESIAN_POINT('',(0.,1.53080849893419E-18,0.0526092889606953));
#863=CARTESIAN_POINT('',(0.022,-0.00519615242270664,0.0436092889606953));
#864=CARTESIAN_POINT('',(0.,1.53080849893419E-18,0.05));
#865=CARTESIAN_POINT('',(0.,1.53080849893419E-18,0.));
#866=CARTESIAN_POINT('',(0.025,1.53080849893419E-18,0.));
#867=CARTESIAN_POINT('',(0.0233485114878359,-0.00893571548911424,0.0429386265979237));
#868=CARTESIAN_POINT('',(0.0234477979850556,-0.00867628557287012,0.0439338416684536));
#869=CARTESIAN_POINT('',(0.0237596293381002,-0.00784245203547155,0.0457887789334508));
#870=CARTESIAN_POINT('',(0.0243677086892088,-0.00576738939899036,0.0480322840835712));
#871=CARTESIAN_POINT('',(0.0248684851958344,-0.00307470859985736,0.0494953857113612));
#872=CARTESIAN_POINT('',(0.0250651602804922,-1.03358624333427E-5,0.0500161342330792));
#873=CARTESIAN_POINT('',(0.0248708635400667,0.00306089192855325,0.0495017554050455));
#874=CARTESIAN_POINT('',(0.0241998939415593,0.00666688433770812,0.0475442700251046));
#875=CARTESIAN_POINT('',(0.0235470941515235,0.00841683039143579,0.0449291536603349));
#876=CARTESIAN_POINT('',(0.0233485114878359,0.00893571548911425,0.0429386265979237));
#877=CARTESIAN_POINT('',(0.0233485114878359,-0.00893571548911424,0.0429386265979237));
#878=CARTESIAN_POINT('',(0.0233485114878359,0.00893571548911425,0.0429386265979236));
#879=CARTESIAN_POINT('',(0.,1.53080849893419E-18,0.0518743420870379));
#880=CARTESIAN_POINT('',(0.0121042619873845,-0.0218743420870379,0.03));
#881=CARTESIAN_POINT('',(0.,1.53080849893419E-18,0.03));
#882=CARTESIAN_POINT('',(-0.0121042619873845,-0.0218743420870379,0.03));
#883=CARTESIAN_POINT('',(0.,1.53080849893419E-18,0.0518743420870379));
#884=CARTESIAN_POINT('',(-0.022,-0.0118743420870379,0.04));
#885=CARTESIAN_POINT('',(-0.022,-0.0118743420870379,0.05));
#886=CARTESIAN_POINT('',(-0.022,-0.0118743420870379,0.03));
#887=CARTESIAN_POINT('',(0.,1.53080849893419E-18,0.03));
#888=CARTESIAN_POINT('',(-0.022,0.0118743420870379,0.03));
#889=CARTESIAN_POINT('',(-0.022,0.0118743420870379,0.05));
#890=CARTESIAN_POINT('',(-0.022,0.0118743420870379,0.04));
#891=CARTESIAN_POINT('',(0.,1.53080849893419E-18,0.0518743420870379));
#892=CARTESIAN_POINT('',(-0.0121042619873845,0.0218743420870379,0.03));
#893=CARTESIAN_POINT('',(0.,1.53080849893419E-18,0.03));
#894=CARTESIAN_POINT('',(0.0121042619873845,0.0218743420870379,0.03));
#895=CARTESIAN_POINT('',(0.,1.53080849893419E-18,0.0518743420870379));
#896=CARTESIAN_POINT('',(0.01,0.0371,0.04));
#897=CARTESIAN_POINT('',(0.01,0.,0.0406092889606952));
#898=CARTESIAN_POINT('',(0.01,0.,0.0438592889606952));
#899=CARTESIAN_POINT('',(0.01,0.0371,0.03));
#900=CARTESIAN_POINT('',(0.01,0.021874342087038,0.03));
#901=CARTESIAN_POINT('',(0.01,-0.0218743420870379,0.03));
#902=CARTESIAN_POINT('',(0.01,0.012612828956481,0.064487171043519));
#903=CARTESIAN_POINT('',(0.01,-0.0118743420870379,0.04));
#904=CARTESIAN_POINT('',(0.01,1.95156391047391E-18,0.0406092889606953));
#905=CARTESIAN_POINT('',(0.01,0.0118743420870379,0.04));
#906=CARTESIAN_POINT('',(0.01,0.024487171043519,0.0273871710435189));
#907=CARTESIAN_POINT('',(-0.01,0.0371,0.04));
#908=CARTESIAN_POINT('',(-0.01,0.,0.0406092889606952));
#909=CARTESIAN_POINT('',(-0.01,0.,0.0438592889606952));
#910=CARTESIAN_POINT('',(-0.01,0.012612828956481,0.064487171043519));
#911=CARTESIAN_POINT('',(-0.01,-0.0218743420870379,0.03));
#912=CARTESIAN_POINT('',(-0.01,-0.0118743420870379,0.04));
#913=CARTESIAN_POINT('',(-0.01,0.0371,0.03));
#914=CARTESIAN_POINT('',(-0.01,0.0218743420870379,0.03));
#915=CARTESIAN_POINT('',(-0.01,0.024487171043519,0.0273871710435189));
#916=CARTESIAN_POINT('',(-0.01,0.0118743420870379,0.04));
#917=CARTESIAN_POINT('',(-0.01,1.95156391047391E-18,0.0406092889606953));
#918=CARTESIAN_POINT('',(-0.022,0.0371,0.04));
#919=CARTESIAN_POINT('',(-0.022,0.,0.0406092889606952));
#920=CARTESIAN_POINT('',(-0.022,0.,0.0438592889606952));
#921=CARTESIAN_POINT('',(-0.022,0.012612828956481,0.064487171043519));
#922=CARTESIAN_POINT('',(-0.022,-0.00893571548911425,0.0429386265979236));
#923=CARTESIAN_POINT('',(-0.022,1.95156391047391E-18,0.0406092889606953));
#924=CARTESIAN_POINT('',(-0.022,0.00893571548911425,0.0429386265979236));
#925=CARTESIAN_POINT('',(-0.022,0.0168743420870379,0.035));
#926=CARTESIAN_POINT('',(-0.022,0.0371,0.03));
#927=CARTESIAN_POINT('',(0.,1.99005104861445E-19,-0.0163));
#928=CARTESIAN_POINT('',(0.,1.99005104861445E-19,0.));
#929=CARTESIAN_POINT('',(0.00325,1.99005104861445E-19,0.));
#930=CARTESIAN_POINT('',(0.,1.99005104861445E-19,0.023));
#931=CARTESIAN_POINT('',(0.00325,1.99005104861445E-19,0.023));
#932=CARTESIAN_POINT('',(0.,0.,0.027));
#933=CARTESIAN_POINT('',(0.,5.20474889637625E-19,0.027));
#934=CARTESIAN_POINT('',(0.0085,5.20474889637625E-19,0.027));
#935=CARTESIAN_POINT('',(2.16840434497101E-19,0.0035,0.027));
#936=CARTESIAN_POINT('',(0.0035,0.0035,0.027));
#937=CARTESIAN_POINT('',(-0.0035,0.0035,0.027));
#938=CARTESIAN_POINT('',(0.0035,0.,0.027));
#939=CARTESIAN_POINT('',(0.0035,-0.0035,0.027));
#940=CARTESIAN_POINT('',(0.,-0.0035,0.027));
#941=CARTESIAN_POINT('',(-0.0035,-0.0035,0.027));
#942=CARTESIAN_POINT('',(-0.0035,0.,0.027));
#943=CARTESIAN_POINT('',(0.,0.,0.));
#944=CARTESIAN_POINT('',(0.,0.0371,0.03));
#945=CARTESIAN_POINT('',(-0.0335,0.0218743420870379,0.03));
#946=CARTESIAN_POINT('',(-0.0335,-0.0218743420870379,0.03));
#947=CARTESIAN_POINT('',(-0.0335,-0.0218743420870379,0.03));
#948=CARTESIAN_POINT('',(-0.0335,0.0218743420870379,0.03));
#949=CARTESIAN_POINT('',(0.,5.20474889637625E-19,0.03));
#950=CARTESIAN_POINT('',(0.0085,5.20474889637625E-19,0.03));
#951=CARTESIAN_POINT('',(-0.0319266588351901,0.0371,0.03));
#952=CARTESIAN_POINT('',(0.022,0.0371,0.04));
#953=CARTESIAN_POINT('',(0.022,0.,0.0406092889606952));
#954=CARTESIAN_POINT('',(0.022,0.,0.0438592889606952));
#955=CARTESIAN_POINT('',(-0.032,0.,0.0406092889606952));
#956=CARTESIAN_POINT('',(-0.032,0.,0.0406092889606952));
#957=CARTESIAN_POINT('',(0.,5.20474889637625E-19,0.027));
#958=CARTESIAN_POINT('',(0.,0.,0.023));
#959=CARTESIAN_POINT('',(0.0035,0.,0.023));
#960=CARTESIAN_POINT('',(0.0035,0.0035,0.023));
#961=CARTESIAN_POINT('',(0.0035,-0.0035,0.023));
#962=CARTESIAN_POINT('',(2.16840434497101E-19,0.0035,0.023));
#963=CARTESIAN_POINT('',(-0.0035,0.0035,0.023));
#964=CARTESIAN_POINT('',(-0.0035,0.,0.023));
#965=CARTESIAN_POINT('',(-0.0035,-0.0035,0.023));
#966=CARTESIAN_POINT('',(0.,-0.0035,0.023));
#967=CARTESIAN_POINT('',(0.0035,0.,0.023));
#968=CARTESIAN_POINT('',(0.0035,0.0035,0.023));
#969=CARTESIAN_POINT('',(0.0035,-0.0035,0.023));
#970=CARTESIAN_POINT('',(2.16840434497101E-19,0.0035,0.023));
#971=CARTESIAN_POINT('',(-0.0035,0.0035,0.023));
#972=CARTESIAN_POINT('',(-0.0035,0.,0.023));
#973=CARTESIAN_POINT('',(-0.0035,-0.0035,0.023));
#974=CARTESIAN_POINT('',(0.,-0.0035,0.023));
#975=CARTESIAN_POINT('',(-0.0335,0.0168743420870379,0.035));
#976=CARTESIAN_POINT('',(-0.0193443650813896,0.0118743420870379,0.04));
#977=CARTESIAN_POINT('',(-0.0198075134845125,0.0118743420870379,0.04));
#978=CARTESIAN_POINT('',(-0.0207016985910539,0.0116326295278695,0.0402417125591684));
#979=CARTESIAN_POINT('',(-0.0215506078815219,0.0108340543618811,0.0410402877251568));
#980=CARTESIAN_POINT('',(-0.0219412037362765,0.00989728718141408,0.0419770549056238));
#981=CARTESIAN_POINT('',(-0.022,0.00925716014636994,0.042617181940668));
#982=CARTESIAN_POINT('',(-0.022,0.00893571548911425,0.0429386265979236));
#983=CARTESIAN_POINT('',(-0.0193443650813896,0.0118743420870379,0.04));
#984=CARTESIAN_POINT('',(-0.0335,0.0118743420870379,0.04));
#985=CARTESIAN_POINT('',(-0.0335,1.95156391047391E-18,0.0406092889606953));
#986=CARTESIAN_POINT('',(-0.0193443650813896,1.95156391047391E-18,0.0406092889606953));
#987=CARTESIAN_POINT('',(-0.0193443650813896,-0.0118743420870379,0.04));
#988=CARTESIAN_POINT('',(-0.0335,-0.0118743420870379,0.04));
#989=CARTESIAN_POINT('',(-0.0335,-0.0168743420870379,0.035));
#990=CARTESIAN_POINT('',(-0.0193443650813896,-0.0118743420870379,0.04));
#991=CARTESIAN_POINT('',(-0.0198075134845125,-0.0118743420870379,0.04));
#992=CARTESIAN_POINT('',(-0.0207016985910539,-0.0116326295278695,0.0402417125591684));
#993=CARTESIAN_POINT('',(-0.0215506078815219,-0.0108340543618811,0.0410402877251568));
#994=CARTESIAN_POINT('',(-0.0219412037362765,-0.00989728718141408,0.0419770549056238));
#995=CARTESIAN_POINT('',(-0.022,-0.00925716014636994,0.042617181940668));
#996=CARTESIAN_POINT('',(-0.022,-0.00893571548911425,0.0429386265979237));
#997=CARTESIAN_POINT('',(-0.0335,0.0168743420870379,0.035));
#998=CARTESIAN_POINT('',(0.025,0.00893571548911425,0.0429386265979236));
#999=CARTESIAN_POINT('',(0.022,0.00893571548911425,0.0429386265979236));
#1000=CARTESIAN_POINT('',(-0.0335,0.0118743420870379,0.04));
#1001=CARTESIAN_POINT('',(0.0193443650813896,0.0118743420870379,0.04));
#1002=CARTESIAN_POINT('',(0.0193443650813896,0.0118743420870379,0.04));
#1003=CARTESIAN_POINT('',(0.0198075134845125,0.0118743420870379,0.04));
#1004=CARTESIAN_POINT('',(0.0207016985910539,0.0116326295278695,0.0402417125591685));
#1005=CARTESIAN_POINT('',(0.0215506078815219,0.0108340543618811,0.0410402877251568));
#1006=CARTESIAN_POINT('',(0.0219412037362765,0.00989728718141409,0.0419770549056238));
#1007=CARTESIAN_POINT('',(0.022,0.00925716014636994,0.042617181940668));
#1008=CARTESIAN_POINT('',(0.022,0.00893571548911425,0.0429386265979236));
#1009=CARTESIAN_POINT('',(-0.0335,-0.0168743420870379,0.035));
#1010=CARTESIAN_POINT('',(0.025,-0.00893571548911424,0.0429386265979237));
#1011=CARTESIAN_POINT('',(0.022,-0.00893571548911424,0.0429386265979237));
#1012=CARTESIAN_POINT('',(0.0193443650813896,-0.0118743420870379,0.04));
#1013=CARTESIAN_POINT('',(0.0198075134845125,-0.0118743420870379,0.04));
#1014=CARTESIAN_POINT('',(0.0207016985910539,-0.0116326295278695,0.0402417125591685));
#1015=CARTESIAN_POINT('',(0.0215506078815219,-0.0108340543618811,0.0410402877251568));
#1016=CARTESIAN_POINT('',(0.0219412037362765,-0.00989728718141407,0.0419770549056238));
#1017=CARTESIAN_POINT('',(0.022,-0.00925716014636992,0.042617181940668));
#1018=CARTESIAN_POINT('',(0.022,-0.00893571548911423,0.0429386265979237));
#1019=CARTESIAN_POINT('',(0.0193443650813896,-0.0118743420870379,0.04));
#1020=CARTESIAN_POINT('',(-0.0335,-0.0118743420870379,0.04));
#1021=CARTESIAN_POINT('',(-0.0335,1.95156391047391E-18,0.0406092889606953));
#1022=CARTESIAN_POINT('',(0.0193443650813896,1.95156391047391E-18,0.0406092889606953));
#1023=CARTESIAN_POINT('',(-0.0193443650813896,1.95156391047391E-18,0.0406092889606953));
#1024=CARTESIAN_POINT('',(0.0193443650813896,1.95156391047391E-18,0.0406092889606953));
#1025=CARTESIAN_POINT('',(0.022,1.95156391047391E-18,0.0406092889606953));
#1026=CARTESIAN_POINT('',(0.025,1.95156391047391E-18,0.0406092889606953));
#1027=MECHANICAL_DESIGN_GEOMETRIC_PRESENTATION_REPRESENTATION('',(#585),
#1028);
#1028=(
GEOMETRIC_REPRESENTATION_CONTEXT(3)
GLOBAL_UNCERTAINTY_ASSIGNED_CONTEXT((#1029))
GLOBAL_UNIT_ASSIGNED_CONTEXT((#1032,#1031,#1030))
REPRESENTATION_CONTEXT('Part 1','TOP_LEVEL_ASSEMBLY_PART')
);
#1029=UNCERTAINTY_MEASURE_WITH_UNIT(LENGTH_MEASURE(2.E-5),#1032,
'DISTANCE_ACCURACY_VALUE','Maximum Tolerance applied to model');
#1030=(
NAMED_UNIT(*)
SI_UNIT($,.STERADIAN.)
SOLID_ANGLE_UNIT()
);
#1031=(
NAMED_UNIT(*)
PLANE_ANGLE_UNIT()
SI_UNIT($,.RADIAN.)
);
#1032=(
LENGTH_UNIT()
NAMED_UNIT(*)
SI_UNIT($,.METRE.)
);
#1033=PRODUCT_DEFINITION_SHAPE('','',#1034);
#1034=PRODUCT_DEFINITION('','',#1036,#1035);
#1035=PRODUCT_DEFINITION_CONTEXT('',#1042,'design');
#1036=PRODUCT_DEFINITION_FORMATION_WITH_SPECIFIED_SOURCE('','',#1038,
 .NOT_KNOWN.);
#1037=PRODUCT_RELATED_PRODUCT_CATEGORY('','',(#1038));
#1038=PRODUCT('Part 1','Part 1','Part 1',(#1040));
#1039=PRODUCT_CATEGORY('','');
#1040=PRODUCT_CONTEXT('',#1042,'mechanical');
#1041=APPLICATION_PROTOCOL_DEFINITION('international standard',
'ap242_managed_model_based_3d_engineering',2020,#1042);
#1042=APPLICATION_CONTEXT('managed model based 3d engineering');
ENDSEC;
END-ISO-10303-21;
