ISO-10303-21;
HEADER;
/* Generated by software containing ST-Developer
 * from STEP Tools, Inc. (www.steptools.com) 
 */
/* OPTION: using custom renumber hook */

FILE_DESCRIPTION(
/* description */ ('STEP AP242 Edition 2',
'CAx-IF Rec.Pracs.---Representation and Presentation of Product Manufa
cturing Information (PMI)---4.0---2014-10-13',
'CAx-IF Rec.Pracs.---3D Tessellated Geometry---0.4---2014-09-14','2;1',
'CAx-IF Rec.Pracs.---User Defined Attributes---1.5---2016-08-15'),
/* implementation_level */ '2;1');

FILE_NAME(
/* name */ 'EQ Wedge Tracker Mount',
/* time_stamp */ '2026-09-06T19:35:11Z',
/* author */ (''),
/* organization */ (''),
/* preprocessor_version */ 'ST-DEVELOPER v20',
/* originating_system */ 'ONSHAPE BY PTC INC, 1.220',
/* authorisation */ '  ');

FILE_SCHEMA (('AP242_MANAGED_MODEL_BASED_3D_ENGINEERING_MIM_LF { 1 0 10303 442 3 1 4 }'));
ENDSEC;

DATA;
#10=SHAPE_REPRESENTATION_RELATIONSHIP('','',#527,#11);
#11=ADVANCED_BREP_SHAPE_REPRESENTATION('',(#525),#929);
#12=TOROIDAL_SURFACE('',#576,0.00820832508138959,0.0026556349186104);
#13=TOROIDAL_SURFACE('',#578,0.00820832508138959,0.0026556349186104);
#14=TOROIDAL_SURFACE('',#584,0.00820832508138959,0.0026556349186104);
#15=TOROIDAL_SURFACE('',#586,0.00820832508138959,0.0026556349186104);
#16=PLANE('',#536);
#17=PLANE('',#539);
#18=PLANE('',#543);
#19=PLANE('',#544);
#20=PLANE('',#545);
#21=PLANE('',#546);
#22=PLANE('',#547);
#23=PLANE('',#551);
#24=PLANE('',#558);
#25=PLANE('',#590);
#26=PLANE('',#591);
#27=PLANE('',#592);
#28=PLANE('',#593);
#29=LINE('',#798,#61);
#30=LINE('',#802,#62);
#31=LINE('',#806,#63);
#32=LINE('',#810,#64);
#33=LINE('',#815,#65);
#34=LINE('',#819,#66);
#35=LINE('',#823,#67);
#36=LINE('',#827,#68);
#37=LINE('',#829,#69);
#38=LINE('',#832,#70);
#39=LINE('',#834,#71);
#40=LINE('',#836,#72);
#41=LINE('',#838,#73);
#42=LINE('',#840,#74);
#43=LINE('',#842,#75);
#44=LINE('',#844,#76);
#45=LINE('',#846,#77);
#46=LINE('',#848,#78);
#47=LINE('',#851,#79);
#48=LINE('',#853,#80);
#49=LINE('',#855,#81);
#50=LINE('',#857,#82);
#51=LINE('',#860,#83);
#52=LINE('',#861,#84);
#53=LINE('',#863,#85);
#54=LINE('',#865,#86);
#55=LINE('',#869,#87);
#56=LINE('',#873,#88);
#57=LINE('',#877,#89);
#58=LINE('',#891,#90);
#59=LINE('',#924,#91);
#60=LINE('',#926,#92);
#61=VECTOR('',#605,1.);
#62=VECTOR('',#608,1.);
#63=VECTOR('',#611,1.);
#64=VECTOR('',#614,1.);
#65=VECTOR('',#621,1.);
#66=VECTOR('',#626,1.);
#67=VECTOR('',#629,1.);
#68=VECTOR('',#632,1.);
#69=VECTOR('',#635,1.);
#70=VECTOR('',#636,1.);
#71=VECTOR('',#637,1.);
#72=VECTOR('',#638,1.);
#73=VECTOR('',#641,1.);
#74=VECTOR('',#642,1.);
#75=VECTOR('',#643,1.);
#76=VECTOR('',#644,1.);
#77=VECTOR('',#645,1.);
#78=VECTOR('',#648,1.);
#79=VECTOR('',#649,1.);
#80=VECTOR('',#650,1.);
#81=VECTOR('',#651,1.);
#82=VECTOR('',#654,1.);
#83=VECTOR('',#655,1.);
#84=VECTOR('',#656,1.);
#85=VECTOR('',#657,1.);
#86=VECTOR('',#658,1.);
#87=VECTOR('',#663,1.);
#88=VECTOR('',#666,1.);
#89=VECTOR('',#669,1.);
#90=VECTOR('',#690,1.);
#91=VECTOR('',#755,1.);
#92=VECTOR('',#758,1.);
#93=ELLIPSE('',#532,0.04819893752418,0.015);
#94=ELLIPSE('',#534,0.04819893752418,0.015);
#95=B_SPLINE_CURVE_WITH_KNOTS('',3,(#766,#767,#768,#769,#770,#771),
 .UNSPECIFIED.,.F.,.F.,(4,1,1,4),(0.,0.00237245648059382,0.00474491296118764,
0.00948982592237528),.UNSPECIFIED.);
#96=B_SPLINE_CURVE_WITH_KNOTS('',3,(#773,#774,#775,#776,#777,#778),
 .UNSPECIFIED.,.F.,.F.,(4,1,1,4),(0.,0.00237245648059382,0.00474491296118764,
0.00948982592237528),.UNSPECIFIED.);
#97=B_SPLINE_CURVE_WITH_KNOTS('',3,(#782,#783,#784,#785,#786,#787),
 .UNSPECIFIED.,.F.,.F.,(4,1,1,4),(0.,0.00237245648059382,0.00474491296118764,
0.00948982592237528),.UNSPECIFIED.);
#98=B_SPLINE_CURVE_WITH_KNOTS('',3,(#789,#790,#791,#792,#793,#794),
 .UNSPECIFIED.,.F.,.F.,(4,1,1,4),(0.,0.00237245648059382,0.00474491296118764,
0.00948982592237528),.UNSPECIFIED.);
#99=ORIENTED_EDGE('',*,*,#239,.F.);
#100=ORIENTED_EDGE('',*,*,#240,.T.);
#101=ORIENTED_EDGE('',*,*,#241,.T.);
#102=ORIENTED_EDGE('',*,*,#242,.F.);
#103=ORIENTED_EDGE('',*,*,#243,.T.);
#104=ORIENTED_EDGE('',*,*,#244,.T.);
#105=ORIENTED_EDGE('',*,*,#245,.F.);
#106=ORIENTED_EDGE('',*,*,#246,.T.);
#107=ORIENTED_EDGE('',*,*,#247,.F.);
#108=ORIENTED_EDGE('',*,*,#248,.F.);
#109=ORIENTED_EDGE('',*,*,#249,.F.);
#110=ORIENTED_EDGE('',*,*,#250,.T.);
#111=ORIENTED_EDGE('',*,*,#251,.F.);
#112=ORIENTED_EDGE('',*,*,#252,.F.);
#113=ORIENTED_EDGE('',*,*,#253,.F.);
#114=ORIENTED_EDGE('',*,*,#246,.F.);
#115=ORIENTED_EDGE('',*,*,#254,.T.);
#116=ORIENTED_EDGE('',*,*,#248,.T.);
#117=ORIENTED_EDGE('',*,*,#255,.F.);
#118=ORIENTED_EDGE('',*,*,#256,.F.);
#119=ORIENTED_EDGE('',*,*,#239,.T.);
#120=ORIENTED_EDGE('',*,*,#257,.T.);
#121=ORIENTED_EDGE('',*,*,#258,.T.);
#122=ORIENTED_EDGE('',*,*,#259,.T.);
#123=ORIENTED_EDGE('',*,*,#260,.T.);
#124=ORIENTED_EDGE('',*,*,#261,.T.);
#125=ORIENTED_EDGE('',*,*,#262,.T.);
#126=ORIENTED_EDGE('',*,*,#263,.T.);
#127=ORIENTED_EDGE('',*,*,#264,.T.);
#128=ORIENTED_EDGE('',*,*,#265,.F.);
#129=ORIENTED_EDGE('',*,*,#266,.T.);
#130=ORIENTED_EDGE('',*,*,#267,.T.);
#131=ORIENTED_EDGE('',*,*,#268,.T.);
#132=ORIENTED_EDGE('',*,*,#269,.T.);
#133=ORIENTED_EDGE('',*,*,#270,.T.);
#134=ORIENTED_EDGE('',*,*,#271,.T.);
#135=ORIENTED_EDGE('',*,*,#272,.T.);
#136=ORIENTED_EDGE('',*,*,#273,.T.);
#137=ORIENTED_EDGE('',*,*,#274,.T.);
#138=ORIENTED_EDGE('',*,*,#275,.T.);
#139=ORIENTED_EDGE('',*,*,#276,.T.);
#140=ORIENTED_EDGE('',*,*,#277,.T.);
#141=ORIENTED_EDGE('',*,*,#278,.T.);
#142=ORIENTED_EDGE('',*,*,#279,.F.);
#143=ORIENTED_EDGE('',*,*,#280,.F.);
#144=ORIENTED_EDGE('',*,*,#242,.T.);
#145=ORIENTED_EDGE('',*,*,#281,.T.);
#146=ORIENTED_EDGE('',*,*,#282,.T.);
#147=ORIENTED_EDGE('',*,*,#283,.T.);
#148=ORIENTED_EDGE('',*,*,#284,.T.);
#149=ORIENTED_EDGE('',*,*,#285,.T.);
#150=ORIENTED_EDGE('',*,*,#286,.T.);
#151=ORIENTED_EDGE('',*,*,#287,.T.);
#152=ORIENTED_EDGE('',*,*,#269,.F.);
#153=ORIENTED_EDGE('',*,*,#288,.T.);
#154=ORIENTED_EDGE('',*,*,#265,.T.);
#155=ORIENTED_EDGE('',*,*,#289,.T.);
#156=ORIENTED_EDGE('',*,*,#279,.T.);
#157=ORIENTED_EDGE('',*,*,#290,.T.);
#158=ORIENTED_EDGE('',*,*,#274,.F.);
#159=ORIENTED_EDGE('',*,*,#291,.T.);
#160=ORIENTED_EDGE('',*,*,#292,.T.);
#161=ORIENTED_EDGE('',*,*,#250,.F.);
#162=ORIENTED_EDGE('',*,*,#293,.T.);
#163=ORIENTED_EDGE('',*,*,#252,.T.);
#164=ORIENTED_EDGE('',*,*,#294,.T.);
#165=ORIENTED_EDGE('',*,*,#253,.T.);
#166=ORIENTED_EDGE('',*,*,#292,.F.);
#167=ORIENTED_EDGE('',*,*,#256,.T.);
#168=ORIENTED_EDGE('',*,*,#287,.F.);
#169=ORIENTED_EDGE('',*,*,#280,.T.);
#170=ORIENTED_EDGE('',*,*,#286,.F.);
#171=ORIENTED_EDGE('',*,*,#268,.F.);
#172=ORIENTED_EDGE('',*,*,#295,.T.);
#173=ORIENTED_EDGE('',*,*,#262,.F.);
#174=ORIENTED_EDGE('',*,*,#288,.F.);
#175=ORIENTED_EDGE('',*,*,#264,.F.);
#176=ORIENTED_EDGE('',*,*,#296,.T.);
#177=ORIENTED_EDGE('',*,*,#275,.F.);
#178=ORIENTED_EDGE('',*,*,#289,.F.);
#179=ORIENTED_EDGE('',*,*,#273,.F.);
#180=ORIENTED_EDGE('',*,*,#297,.T.);
#181=ORIENTED_EDGE('',*,*,#270,.F.);
#182=ORIENTED_EDGE('',*,*,#291,.F.);
#183=ORIENTED_EDGE('',*,*,#278,.F.);
#184=ORIENTED_EDGE('',*,*,#298,.T.);
#185=ORIENTED_EDGE('',*,*,#271,.F.);
#186=ORIENTED_EDGE('',*,*,#290,.F.);
#187=ORIENTED_EDGE('',*,*,#257,.F.);
#188=ORIENTED_EDGE('',*,*,#244,.F.);
#189=ORIENTED_EDGE('',*,*,#266,.F.);
#190=ORIENTED_EDGE('',*,*,#299,.F.);
#191=ORIENTED_EDGE('',*,*,#243,.F.);
#192=ORIENTED_EDGE('',*,*,#285,.F.);
#193=ORIENTED_EDGE('',*,*,#300,.F.);
#194=ORIENTED_EDGE('',*,*,#267,.F.);
#195=ORIENTED_EDGE('',*,*,#299,.T.);
#196=ORIENTED_EDGE('',*,*,#297,.F.);
#197=ORIENTED_EDGE('',*,*,#301,.F.);
#198=ORIENTED_EDGE('',*,*,#258,.F.);
#199=ORIENTED_EDGE('',*,*,#300,.T.);
#200=ORIENTED_EDGE('',*,*,#284,.F.);
#201=ORIENTED_EDGE('',*,*,#302,.F.);
#202=ORIENTED_EDGE('',*,*,#295,.F.);
#203=ORIENTED_EDGE('',*,*,#301,.T.);
#204=ORIENTED_EDGE('',*,*,#272,.F.);
#205=ORIENTED_EDGE('',*,*,#303,.F.);
#206=ORIENTED_EDGE('',*,*,#259,.F.);
#207=ORIENTED_EDGE('',*,*,#302,.T.);
#208=ORIENTED_EDGE('',*,*,#283,.F.);
#209=ORIENTED_EDGE('',*,*,#304,.F.);
#210=ORIENTED_EDGE('',*,*,#263,.F.);
#211=ORIENTED_EDGE('',*,*,#303,.T.);
#212=ORIENTED_EDGE('',*,*,#298,.F.);
#213=ORIENTED_EDGE('',*,*,#305,.F.);
#214=ORIENTED_EDGE('',*,*,#260,.F.);
#215=ORIENTED_EDGE('',*,*,#304,.T.);
#216=ORIENTED_EDGE('',*,*,#282,.F.);
#217=ORIENTED_EDGE('',*,*,#306,.F.);
#218=ORIENTED_EDGE('',*,*,#296,.F.);
#219=ORIENTED_EDGE('',*,*,#305,.T.);
#220=ORIENTED_EDGE('',*,*,#277,.F.);
#221=ORIENTED_EDGE('',*,*,#240,.F.);
#222=ORIENTED_EDGE('',*,*,#261,.F.);
#223=ORIENTED_EDGE('',*,*,#306,.T.);
#224=ORIENTED_EDGE('',*,*,#281,.F.);
#225=ORIENTED_EDGE('',*,*,#241,.F.);
#226=ORIENTED_EDGE('',*,*,#276,.F.);
#227=ORIENTED_EDGE('',*,*,#294,.F.);
#228=ORIENTED_EDGE('',*,*,#251,.T.);
#229=ORIENTED_EDGE('',*,*,#247,.T.);
#230=ORIENTED_EDGE('',*,*,#255,.T.);
#231=ORIENTED_EDGE('',*,*,#245,.T.);
#232=ORIENTED_EDGE('',*,*,#307,.F.);
#233=ORIENTED_EDGE('',*,*,#249,.T.);
#234=ORIENTED_EDGE('',*,*,#308,.T.);
#235=ORIENTED_EDGE('',*,*,#307,.T.);
#236=ORIENTED_EDGE('',*,*,#293,.F.);
#237=ORIENTED_EDGE('',*,*,#308,.F.);
#238=ORIENTED_EDGE('',*,*,#254,.F.);
#239=EDGE_CURVE('',#309,#310,#353,.F.);
#240=EDGE_CURVE('',#309,#311,#95,.T.);
#241=EDGE_CURVE('',#311,#312,#96,.F.);
#242=EDGE_CURVE('',#313,#312,#354,.F.);
#243=EDGE_CURVE('',#313,#314,#97,.T.);
#244=EDGE_CURVE('',#314,#310,#98,.F.);
#245=EDGE_CURVE('',#315,#316,#93,.T.);
#246=EDGE_CURVE('',#315,#317,#29,.T.);
#247=EDGE_CURVE('',#318,#317,#355,.T.);
#248=EDGE_CURVE('',#319,#318,#30,.T.);
#249=EDGE_CURVE('',#320,#319,#94,.T.);
#250=EDGE_CURVE('',#320,#321,#31,.T.);
#251=EDGE_CURVE('',#322,#321,#356,.T.);
#252=EDGE_CURVE('',#316,#322,#32,.T.);
#253=EDGE_CURVE('',#323,#323,#357,.T.);
#254=EDGE_CURVE('',#315,#319,#358,.T.);
#255=EDGE_CURVE('',#317,#318,#33,.T.);
#256=EDGE_CURVE('',#324,#324,#359,.T.);
#257=EDGE_CURVE('',#310,#325,#34,.T.);
#258=EDGE_CURVE('',#325,#326,#360,.T.);
#259=EDGE_CURVE('',#326,#327,#35,.T.);
#260=EDGE_CURVE('',#327,#328,#361,.T.);
#261=EDGE_CURVE('',#328,#309,#36,.F.);
#262=EDGE_CURVE('',#329,#330,#37,.F.);
#263=EDGE_CURVE('',#330,#331,#38,.T.);
#264=EDGE_CURVE('',#331,#332,#39,.T.);
#265=EDGE_CURVE('',#329,#332,#40,.T.);
#266=EDGE_CURVE('',#333,#314,#41,.F.);
#267=EDGE_CURVE('',#314,#334,#42,.F.);
#268=EDGE_CURVE('',#334,#335,#43,.T.);
#269=EDGE_CURVE('',#335,#336,#44,.T.);
#270=EDGE_CURVE('',#336,#333,#45,.F.);
#271=EDGE_CURVE('',#337,#338,#46,.F.);
#272=EDGE_CURVE('',#338,#339,#47,.F.);
#273=EDGE_CURVE('',#339,#340,#48,.T.);
#274=EDGE_CURVE('',#340,#337,#49,.T.);
#275=EDGE_CURVE('',#341,#342,#50,.F.);
#276=EDGE_CURVE('',#342,#311,#51,.T.);
#277=EDGE_CURVE('',#311,#343,#52,.T.);
#278=EDGE_CURVE('',#343,#344,#53,.T.);
#279=EDGE_CURVE('',#341,#344,#54,.T.);
#280=EDGE_CURVE('',#345,#345,#362,.T.);
#281=EDGE_CURVE('',#312,#346,#55,.F.);
#282=EDGE_CURVE('',#346,#347,#363,.T.);
#283=EDGE_CURVE('',#347,#348,#56,.F.);
#284=EDGE_CURVE('',#348,#349,#364,.T.);
#285=EDGE_CURVE('',#349,#313,#57,.T.);
#286=EDGE_CURVE('',#350,#350,#365,.T.);
#287=EDGE_CURVE('',#351,#351,#366,.T.);
#288=EDGE_CURVE('',#335,#329,#367,.F.);
#289=EDGE_CURVE('',#332,#341,#368,.F.);
#290=EDGE_CURVE('',#344,#337,#369,.F.);
#291=EDGE_CURVE('',#340,#336,#370,.F.);
#292=EDGE_CURVE('',#352,#352,#371,.T.);
#293=EDGE_CURVE('',#320,#316,#372,.T.);
#294=EDGE_CURVE('',#322,#321,#58,.T.);
#295=EDGE_CURVE('',#334,#330,#373,.F.);
#296=EDGE_CURVE('',#331,#342,#374,.F.);
#297=EDGE_CURVE('',#339,#333,#375,.F.);
#298=EDGE_CURVE('',#343,#338,#376,.F.);
#299=EDGE_CURVE('',#325,#333,#377,.T.);
#300=EDGE_CURVE('',#334,#349,#378,.T.);
#301=EDGE_CURVE('',#326,#339,#379,.T.);
#302=EDGE_CURVE('',#330,#348,#380,.T.);
#303=EDGE_CURVE('',#327,#338,#381,.T.);
#304=EDGE_CURVE('',#331,#347,#382,.T.);
#305=EDGE_CURVE('',#328,#343,#383,.T.);
#306=EDGE_CURVE('',#342,#346,#384,.T.);
#307=EDGE_CURVE('',#315,#316,#59,.T.);
#308=EDGE_CURVE('',#319,#320,#60,.T.);
#309=VERTEX_POINT('',#764);
#310=VERTEX_POINT('',#765);
#311=VERTEX_POINT('',#772);
#312=VERTEX_POINT('',#779);
#313=VERTEX_POINT('',#781);
#314=VERTEX_POINT('',#788);
#315=VERTEX_POINT('',#796);
#316=VERTEX_POINT('',#797);
#317=VERTEX_POINT('',#799);
#318=VERTEX_POINT('',#801);
#319=VERTEX_POINT('',#803);
#320=VERTEX_POINT('',#805);
#321=VERTEX_POINT('',#807);
#322=VERTEX_POINT('',#809);
#323=VERTEX_POINT('',#813);
#324=VERTEX_POINT('',#818);
#325=VERTEX_POINT('',#820);
#326=VERTEX_POINT('',#822);
#327=VERTEX_POINT('',#824);
#328=VERTEX_POINT('',#826);
#329=VERTEX_POINT('',#830);
#330=VERTEX_POINT('',#831);
#331=VERTEX_POINT('',#833);
#332=VERTEX_POINT('',#835);
#333=VERTEX_POINT('',#839);
#334=VERTEX_POINT('',#841);
#335=VERTEX_POINT('',#843);
#336=VERTEX_POINT('',#845);
#337=VERTEX_POINT('',#849);
#338=VERTEX_POINT('',#850);
#339=VERTEX_POINT('',#852);
#340=VERTEX_POINT('',#854);
#341=VERTEX_POINT('',#858);
#342=VERTEX_POINT('',#859);
#343=VERTEX_POINT('',#862);
#344=VERTEX_POINT('',#864);
#345=VERTEX_POINT('',#868);
#346=VERTEX_POINT('',#870);
#347=VERTEX_POINT('',#872);
#348=VERTEX_POINT('',#874);
#349=VERTEX_POINT('',#876);
#350=VERTEX_POINT('',#880);
#351=VERTEX_POINT('',#882);
#352=VERTEX_POINT('',#889);
#353=CIRCLE('',#530,0.015);
#354=CIRCLE('',#531,0.015);
#355=CIRCLE('',#533,0.015);
#356=CIRCLE('',#535,0.015);
#357=CIRCLE('',#537,0.00325);
#358=CIRCLE('',#538,0.0112980400305592);
#359=CIRCLE('',#540,0.00325);
#360=CIRCLE('',#541,0.00820832508138959);
#361=CIRCLE('',#542,0.00820832508138959);
#362=CIRCLE('',#548,0.00325);
#363=CIRCLE('',#549,0.00820832508138959);
#364=CIRCLE('',#550,0.00820832508138959);
#365=CIRCLE('',#552,0.00325);
#366=CIRCLE('',#553,0.00325);
#367=CIRCLE('',#554,0.01086396);
#368=CIRCLE('',#555,0.01086396);
#369=CIRCLE('',#556,0.01086396);
#370=CIRCLE('',#557,0.01086396);
#371=CIRCLE('',#559,0.00325);
#372=CIRCLE('',#560,0.0112980400305592);
#373=CIRCLE('',#565,0.01086396);
#374=CIRCLE('',#567,0.01086396);
#375=CIRCLE('',#569,0.01086396);
#376=CIRCLE('',#571,0.01086396);
#377=CIRCLE('',#573,0.0026556349186104);
#378=CIRCLE('',#575,0.0026556349186104);
#379=CIRCLE('',#577,0.0026556349186104);
#380=CIRCLE('',#579,0.0026556349186104);
#381=CIRCLE('',#581,0.0026556349186104);
#382=CIRCLE('',#583,0.0026556349186104);
#383=CIRCLE('',#585,0.0026556349186104);
#384=CIRCLE('',#587,0.0026556349186104);
#385=EDGE_LOOP('',(#99,#100,#101,#102,#103,#104));
#386=EDGE_LOOP('',(#105,#106,#107,#108,#109,#110,#111,#112));
#387=EDGE_LOOP('',(#113));
#388=EDGE_LOOP('',(#114,#115,#116,#117));
#389=EDGE_LOOP('',(#118));
#390=EDGE_LOOP('',(#119,#120,#121,#122,#123,#124));
#391=EDGE_LOOP('',(#125,#126,#127,#128));
#392=EDGE_LOOP('',(#129,#130,#131,#132,#133));
#393=EDGE_LOOP('',(#134,#135,#136,#137));
#394=EDGE_LOOP('',(#138,#139,#140,#141,#142));
#395=EDGE_LOOP('',(#143));
#396=EDGE_LOOP('',(#144,#145,#146,#147,#148,#149));
#397=EDGE_LOOP('',(#150));
#398=EDGE_LOOP('',(#151));
#399=EDGE_LOOP('',(#152,#153,#154,#155,#156,#157,#158,#159));
#400=EDGE_LOOP('',(#160));
#401=EDGE_LOOP('',(#161,#162,#163,#164));
#402=EDGE_LOOP('',(#165));
#403=EDGE_LOOP('',(#166));
#404=EDGE_LOOP('',(#167));
#405=EDGE_LOOP('',(#168));
#406=EDGE_LOOP('',(#169));
#407=EDGE_LOOP('',(#170));
#408=EDGE_LOOP('',(#171,#172,#173,#174));
#409=EDGE_LOOP('',(#175,#176,#177,#178));
#410=EDGE_LOOP('',(#179,#180,#181,#182));
#411=EDGE_LOOP('',(#183,#184,#185,#186));
#412=EDGE_LOOP('',(#187,#188,#189,#190));
#413=EDGE_LOOP('',(#191,#192,#193,#194));
#414=EDGE_LOOP('',(#195,#196,#197,#198));
#415=EDGE_LOOP('',(#199,#200,#201,#202));
#416=EDGE_LOOP('',(#203,#204,#205,#206));
#417=EDGE_LOOP('',(#207,#208,#209,#210));
#418=EDGE_LOOP('',(#211,#212,#213,#214));
#419=EDGE_LOOP('',(#215,#216,#217,#218));
#420=EDGE_LOOP('',(#219,#220,#221,#222));
#421=EDGE_LOOP('',(#223,#224,#225,#226));
#422=EDGE_LOOP('',(#227,#228));
#423=EDGE_LOOP('',(#229,#230));
#424=EDGE_LOOP('',(#231,#232));
#425=EDGE_LOOP('',(#233,#234));
#426=EDGE_LOOP('',(#235,#236,#237,#238));
#427=FACE_BOUND('',#385,.T.);
#428=FACE_BOUND('',#386,.T.);
#429=FACE_BOUND('',#387,.T.);
#430=FACE_BOUND('',#388,.T.);
#431=FACE_BOUND('',#389,.T.);
#432=FACE_BOUND('',#390,.T.);
#433=FACE_BOUND('',#391,.T.);
#434=FACE_BOUND('',#392,.T.);
#435=FACE_BOUND('',#393,.T.);
#436=FACE_BOUND('',#394,.T.);
#437=FACE_BOUND('',#395,.T.);
#438=FACE_BOUND('',#396,.T.);
#439=FACE_BOUND('',#397,.T.);
#440=FACE_BOUND('',#398,.T.);
#441=FACE_BOUND('',#399,.T.);
#442=FACE_BOUND('',#400,.T.);
#443=FACE_BOUND('',#401,.T.);
#444=FACE_BOUND('',#402,.T.);
#445=FACE_BOUND('',#403,.T.);
#446=FACE_BOUND('',#404,.T.);
#447=FACE_BOUND('',#405,.T.);
#448=FACE_BOUND('',#406,.T.);
#449=FACE_BOUND('',#407,.T.);
#450=FACE_BOUND('',#408,.T.);
#451=FACE_BOUND('',#409,.T.);
#452=FACE_BOUND('',#410,.T.);
#453=FACE_BOUND('',#411,.T.);
#454=FACE_BOUND('',#412,.T.);
#455=FACE_BOUND('',#413,.T.);
#456=FACE_BOUND('',#414,.T.);
#457=FACE_BOUND('',#415,.T.);
#458=FACE_BOUND('',#416,.T.);
#459=FACE_BOUND('',#417,.T.);
#460=FACE_BOUND('',#418,.T.);
#461=FACE_BOUND('',#419,.T.);
#462=FACE_BOUND('',#420,.T.);
#463=FACE_BOUND('',#421,.T.);
#464=FACE_BOUND('',#422,.T.);
#465=FACE_BOUND('',#423,.T.);
#466=FACE_BOUND('',#424,.T.);
#467=FACE_BOUND('',#425,.T.);
#468=FACE_BOUND('',#426,.T.);
#469=CYLINDRICAL_SURFACE('',#529,0.015);
#470=CYLINDRICAL_SURFACE('',#561,0.00325);
#471=CYLINDRICAL_SURFACE('',#562,0.00325);
#472=CYLINDRICAL_SURFACE('',#563,0.00325);
#473=CYLINDRICAL_SURFACE('',#564,0.01086396);
#474=CYLINDRICAL_SURFACE('',#566,0.01086396);
#475=CYLINDRICAL_SURFACE('',#568,0.01086396);
#476=CYLINDRICAL_SURFACE('',#570,0.01086396);
#477=CYLINDRICAL_SURFACE('',#572,0.0026556349186104);
#478=CYLINDRICAL_SURFACE('',#574,0.0026556349186104);
#479=CYLINDRICAL_SURFACE('',#580,0.0026556349186104);
#480=CYLINDRICAL_SURFACE('',#582,0.0026556349186104);
#481=CYLINDRICAL_SURFACE('',#588,0.0026556349186104);
#482=CYLINDRICAL_SURFACE('',#589,0.0026556349186104);
#483=CYLINDRICAL_SURFACE('',#594,0.0112980400305592);
#484=ADVANCED_FACE('',(#427,#428),#469,.T.);
#485=ADVANCED_FACE('',(#429,#430),#16,.T.);
#486=ADVANCED_FACE('',(#431,#432),#17,.T.);
#487=ADVANCED_FACE('',(#433),#18,.T.);
#488=ADVANCED_FACE('',(#434),#19,.F.);
#489=ADVANCED_FACE('',(#435),#20,.F.);
#490=ADVANCED_FACE('',(#436),#21,.T.);
#491=ADVANCED_FACE('',(#437,#438),#22,.T.);
#492=ADVANCED_FACE('',(#439,#440,#441),#23,.F.);
#493=ADVANCED_FACE('',(#442,#443),#24,.F.);
#494=ADVANCED_FACE('',(#444,#445),#470,.F.);
#495=ADVANCED_FACE('',(#446,#447),#471,.F.);
#496=ADVANCED_FACE('',(#448,#449),#472,.F.);
#497=ADVANCED_FACE('',(#450),#473,.T.);
#498=ADVANCED_FACE('',(#451),#474,.T.);
#499=ADVANCED_FACE('',(#452),#475,.T.);
#500=ADVANCED_FACE('',(#453),#476,.T.);
#501=ADVANCED_FACE('',(#454),#477,.T.);
#502=ADVANCED_FACE('',(#455),#478,.T.);
#503=ADVANCED_FACE('',(#456),#12,.T.);
#504=ADVANCED_FACE('',(#457),#13,.T.);
#505=ADVANCED_FACE('',(#458),#479,.T.);
#506=ADVANCED_FACE('',(#459),#480,.T.);
#507=ADVANCED_FACE('',(#460),#14,.T.);
#508=ADVANCED_FACE('',(#461),#15,.T.);
#509=ADVANCED_FACE('',(#462),#481,.T.);
#510=ADVANCED_FACE('',(#463),#482,.T.);
#511=ADVANCED_FACE('',(#464),#25,.T.);
#512=ADVANCED_FACE('',(#465),#26,.T.);
#513=ADVANCED_FACE('',(#466),#27,.T.);
#514=ADVANCED_FACE('',(#467),#28,.T.);
#515=ADVANCED_FACE('',(#468),#483,.T.);
#516=CLOSED_SHELL('',(#484,#485,#486,#487,#488,#489,#490,#491,#492,#493,
#494,#495,#496,#497,#498,#499,#500,#501,#502,#503,#504,#505,#506,#507,#508,
#509,#510,#511,#512,#513,#514,#515));
#517=STYLED_ITEM('',(#518),#525);
#518=PRESENTATION_STYLE_ASSIGNMENT((#519));
#519=SURFACE_STYLE_USAGE(.BOTH.,#520);
#520=SURFACE_SIDE_STYLE('',(#521));
#521=SURFACE_STYLE_FILL_AREA(#522);
#522=FILL_AREA_STYLE('',(#523));
#523=FILL_AREA_STYLE_COLOUR('',#524);
#524=COLOUR_RGB('',0.4,0.4,0.4);
#525=MANIFOLD_SOLID_BREP('Part 1',#516);
#526=SHAPE_DEFINITION_REPRESENTATION(#934,#527);
#527=SHAPE_REPRESENTATION('Part 1',(#528),#929);
#528=AXIS2_PLACEMENT_3D('',#761,#595,#596);
#529=AXIS2_PLACEMENT_3D('',#762,#597,#598);
#530=AXIS2_PLACEMENT_3D('',#763,#599,#600);
#531=AXIS2_PLACEMENT_3D('',#780,#601,#602);
#532=AXIS2_PLACEMENT_3D('',#795,#603,#604);
#533=AXIS2_PLACEMENT_3D('',#800,#606,#607);
#534=AXIS2_PLACEMENT_3D('',#804,#609,#610);
#535=AXIS2_PLACEMENT_3D('',#808,#612,#613);
#536=AXIS2_PLACEMENT_3D('',#811,#615,#616);
#537=AXIS2_PLACEMENT_3D('',#812,#617,#618);
#538=AXIS2_PLACEMENT_3D('',#814,#619,#620);
#539=AXIS2_PLACEMENT_3D('',#816,#622,#623);
#540=AXIS2_PLACEMENT_3D('',#817,#624,#625);
#541=AXIS2_PLACEMENT_3D('',#821,#627,#628);
#542=AXIS2_PLACEMENT_3D('',#825,#630,#631);
#543=AXIS2_PLACEMENT_3D('',#828,#633,#634);
#544=AXIS2_PLACEMENT_3D('',#837,#639,#640);
#545=AXIS2_PLACEMENT_3D('',#847,#646,#647);
#546=AXIS2_PLACEMENT_3D('',#856,#652,#653);
#547=AXIS2_PLACEMENT_3D('',#866,#659,#660);
#548=AXIS2_PLACEMENT_3D('',#867,#661,#662);
#549=AXIS2_PLACEMENT_3D('',#871,#664,#665);
#550=AXIS2_PLACEMENT_3D('',#875,#667,#668);
#551=AXIS2_PLACEMENT_3D('',#878,#670,#671);
#552=AXIS2_PLACEMENT_3D('',#879,#672,#673);
#553=AXIS2_PLACEMENT_3D('',#881,#674,#675);
#554=AXIS2_PLACEMENT_3D('',#883,#676,#677);
#555=AXIS2_PLACEMENT_3D('',#884,#678,#679);
#556=AXIS2_PLACEMENT_3D('',#885,#680,#681);
#557=AXIS2_PLACEMENT_3D('',#886,#682,#683);
#558=AXIS2_PLACEMENT_3D('',#887,#684,#685);
#559=AXIS2_PLACEMENT_3D('',#888,#686,#687);
#560=AXIS2_PLACEMENT_3D('',#890,#688,#689);
#561=AXIS2_PLACEMENT_3D('',#892,#691,#692);
#562=AXIS2_PLACEMENT_3D('',#893,#693,#694);
#563=AXIS2_PLACEMENT_3D('',#894,#695,#696);
#564=AXIS2_PLACEMENT_3D('',#895,#697,#698);
#565=AXIS2_PLACEMENT_3D('',#896,#699,#700);
#566=AXIS2_PLACEMENT_3D('',#897,#701,#702);
#567=AXIS2_PLACEMENT_3D('',#898,#703,#704);
#568=AXIS2_PLACEMENT_3D('',#899,#705,#706);
#569=AXIS2_PLACEMENT_3D('',#900,#707,#708);
#570=AXIS2_PLACEMENT_3D('',#901,#709,#710);
#571=AXIS2_PLACEMENT_3D('',#902,#711,#712);
#572=AXIS2_PLACEMENT_3D('',#903,#713,#714);
#573=AXIS2_PLACEMENT_3D('',#904,#715,#716);
#574=AXIS2_PLACEMENT_3D('',#905,#717,#718);
#575=AXIS2_PLACEMENT_3D('',#906,#719,#720);
#576=AXIS2_PLACEMENT_3D('',#907,#721,#722);
#577=AXIS2_PLACEMENT_3D('',#908,#723,#724);
#578=AXIS2_PLACEMENT_3D('',#909,#725,#726);
#579=AXIS2_PLACEMENT_3D('',#910,#727,#728);
#580=AXIS2_PLACEMENT_3D('',#911,#729,#730);
#581=AXIS2_PLACEMENT_3D('',#912,#731,#732);
#582=AXIS2_PLACEMENT_3D('',#913,#733,#734);
#583=AXIS2_PLACEMENT_3D('',#914,#735,#736);
#584=AXIS2_PLACEMENT_3D('',#915,#737,#738);
#585=AXIS2_PLACEMENT_3D('',#916,#739,#740);
#586=AXIS2_PLACEMENT_3D('',#917,#741,#742);
#587=AXIS2_PLACEMENT_3D('',#918,#743,#744);
#588=AXIS2_PLACEMENT_3D('',#919,#745,#746);
#589=AXIS2_PLACEMENT_3D('',#920,#747,#748);
#590=AXIS2_PLACEMENT_3D('',#921,#749,#750);
#591=AXIS2_PLACEMENT_3D('',#922,#751,#752);
#592=AXIS2_PLACEMENT_3D('',#923,#753,#754);
#593=AXIS2_PLACEMENT_3D('',#925,#756,#757);
#594=AXIS2_PLACEMENT_3D('',#927,#759,#760);
#595=DIRECTION('',(0.,0.,1.));
#596=DIRECTION('',(1.,0.,0.));
#597=DIRECTION('',(0.,0.,-1.));
#598=DIRECTION('',(-1.,0.,0.));
#599=DIRECTION('',(0.,0.,1.));
#600=DIRECTION('',(1.,0.,0.));
#601=DIRECTION('',(0.,0.,1.));
#602=DIRECTION('',(1.,0.,0.));
#603=DIRECTION('',(0.,0.950341109369483,0.311210179528852));
#604=DIRECTION('',(0.,0.311210179528852,-0.950341109369483));
#605=DIRECTION('',(0.,0.,-1.));
#606=DIRECTION('',(0.,0.,1.));
#607=DIRECTION('',(1.,0.,0.));
#608=DIRECTION('',(0.,0.,-1.));
#609=DIRECTION('',(0.,-0.950341109369483,0.311210179528852));
#610=DIRECTION('',(0.,-0.311210179528852,-0.950341109369483));
#611=DIRECTION('',(0.,0.,-1.));
#612=DIRECTION('',(0.,0.,1.));
#613=DIRECTION('',(1.,0.,0.));
#614=DIRECTION('',(0.,0.,-1.));
#615=DIRECTION('',(1.,0.,0.));
#616=DIRECTION('',(0.,0.,-1.));
#617=DIRECTION('',(1.,0.,0.));
#618=DIRECTION('',(0.,0.,-1.));
#619=DIRECTION('',(1.,0.,0.));
#620=DIRECTION('',(0.,0.,-1.));
#621=DIRECTION('',(0.,-1.,0.));
#622=DIRECTION('',(0.,0.,1.));
#623=DIRECTION('',(1.,0.,0.));
#624=DIRECTION('',(0.,0.,1.));
#625=DIRECTION('',(1.,0.,0.));
#626=DIRECTION('',(-1.,-1.15648231731787E-16,0.));
#627=DIRECTION('',(0.,0.,1.));
#628=DIRECTION('',(1.,0.,0.));
#629=DIRECTION('',(0.,-1.,0.));
#630=DIRECTION('',(0.,0.,1.));
#631=DIRECTION('',(1.,0.,0.));
#632=DIRECTION('',(-1.,-1.15648231731787E-16,0.));
#633=DIRECTION('',(1.,0.,0.));
#634=DIRECTION('',(0.,0.,-1.));
#635=DIRECTION('',(0.,0.,-1.));
#636=DIRECTION('',(0.,-1.,0.));
#637=DIRECTION('',(0.,0.,-1.));
#638=DIRECTION('',(0.,-1.,0.));
#639=DIRECTION('',(1.15648231731787E-16,-1.,0.));
#640=DIRECTION('',(1.,1.15648231731787E-16,0.));
#641=DIRECTION('',(-1.,-1.15648231731787E-16,0.));
#642=DIRECTION('',(-1.,-1.15648231731787E-16,0.));
#643=DIRECTION('',(0.,0.,-1.));
#644=DIRECTION('',(-1.,-1.15648231731787E-16,0.));
#645=DIRECTION('',(0.,0.,-1.));
#646=DIRECTION('',(1.,0.,0.));
#647=DIRECTION('',(0.,0.,-1.));
#648=DIRECTION('',(0.,0.,-1.));
#649=DIRECTION('',(0.,-1.,0.));
#650=DIRECTION('',(0.,0.,-1.));
#651=DIRECTION('',(0.,-1.,0.));
#652=DIRECTION('',(1.15648231731787E-16,-1.,0.));
#653=DIRECTION('',(1.,1.15648231731787E-16,0.));
#654=DIRECTION('',(0.,0.,-1.));
#655=DIRECTION('',(-1.,-1.15648231731787E-16,0.));
#656=DIRECTION('',(-1.,-1.15648231731787E-16,0.));
#657=DIRECTION('',(0.,0.,-1.));
#658=DIRECTION('',(-1.,-1.15648231731787E-16,0.));
#659=DIRECTION('',(0.,0.,1.));
#660=DIRECTION('',(1.,0.,0.));
#661=DIRECTION('',(0.,0.,1.));
#662=DIRECTION('',(1.,0.,0.));
#663=DIRECTION('',(-1.,-1.15648231731787E-16,0.));
#664=DIRECTION('',(0.,0.,1.));
#665=DIRECTION('',(1.,0.,0.));
#666=DIRECTION('',(0.,-1.,0.));
#667=DIRECTION('',(0.,0.,1.));
#668=DIRECTION('',(1.,0.,0.));
#669=DIRECTION('',(-1.,-1.15648231731787E-16,0.));
#670=DIRECTION('',(0.,0.,1.));
#671=DIRECTION('',(1.,0.,0.));
#672=DIRECTION('',(0.,0.,1.));
#673=DIRECTION('',(1.,0.,0.));
#674=DIRECTION('',(0.,0.,1.));
#675=DIRECTION('',(1.,0.,0.));
#676=DIRECTION('',(0.,0.,1.));
#677=DIRECTION('',(1.,0.,0.));
#678=DIRECTION('',(0.,0.,1.));
#679=DIRECTION('',(1.,0.,0.));
#680=DIRECTION('',(0.,0.,1.));
#681=DIRECTION('',(1.,0.,0.));
#682=DIRECTION('',(0.,0.,1.));
#683=DIRECTION('',(1.,0.,0.));
#684=DIRECTION('',(1.,0.,0.));
#685=DIRECTION('',(0.,0.,-1.));
#686=DIRECTION('',(1.,0.,0.));
#687=DIRECTION('',(0.,0.,-1.));
#688=DIRECTION('',(-1.,0.,0.));
#689=DIRECTION('',(0.,0.,1.));
#690=DIRECTION('',(0.,-1.,0.));
#691=DIRECTION('',(1.,0.,0.));
#692=DIRECTION('',(0.,0.,-1.));
#693=DIRECTION('',(0.,0.,1.));
#694=DIRECTION('',(1.,0.,0.));
#695=DIRECTION('',(0.,0.,1.));
#696=DIRECTION('',(1.,0.,0.));
#697=DIRECTION('',(0.,0.,1.));
#698=DIRECTION('',(1.,0.,0.));
#699=DIRECTION('',(0.,0.,1.));
#700=DIRECTION('',(1.,0.,0.));
#701=DIRECTION('',(0.,0.,-1.));
#702=DIRECTION('',(-1.,0.,0.));
#703=DIRECTION('',(0.,0.,1.));
#704=DIRECTION('',(1.,0.,0.));
#705=DIRECTION('',(0.,0.,-1.));
#706=DIRECTION('',(-1.,0.,0.));
#707=DIRECTION('',(0.,0.,1.));
#708=DIRECTION('',(1.,0.,0.));
#709=DIRECTION('',(0.,0.,1.));
#710=DIRECTION('',(1.,0.,0.));
#711=DIRECTION('',(0.,0.,1.));
#712=DIRECTION('',(1.,0.,0.));
#713=DIRECTION('',(1.,1.15648231731787E-16,0.));
#714=DIRECTION('',(-1.15648231731787E-16,1.,0.));
#715=DIRECTION('',(-1.,0.,0.));
#716=DIRECTION('',(0.,0.,1.));
#717=DIRECTION('',(1.,1.15648231731787E-16,0.));
#718=DIRECTION('',(-1.15648231731787E-16,1.,0.));
#719=DIRECTION('',(1.,0.,0.));
#720=DIRECTION('',(0.,0.,-1.));
#721=DIRECTION('',(0.,0.,1.));
#722=DIRECTION('',(1.,0.,0.));
#723=DIRECTION('',(0.,-1.,0.));
#724=DIRECTION('',(0.,0.,-1.));
#725=DIRECTION('',(0.,0.,1.));
#726=DIRECTION('',(1.,0.,0.));
#727=DIRECTION('',(0.,-1.,0.));
#728=DIRECTION('',(0.,0.,-1.));
#729=DIRECTION('',(0.,1.,0.));
#730=DIRECTION('',(0.,0.,1.));
#731=DIRECTION('',(0.,-1.,0.));
#732=DIRECTION('',(0.,0.,-1.));
#733=DIRECTION('',(0.,-1.,0.));
#734=DIRECTION('',(0.,0.,-1.));
#735=DIRECTION('',(0.,-1.,0.));
#736=DIRECTION('',(0.,0.,-1.));
#737=DIRECTION('',(0.,0.,1.));
#738=DIRECTION('',(1.,0.,0.));
#739=DIRECTION('',(1.,0.,0.));
#740=DIRECTION('',(0.,0.,-1.));
#741=DIRECTION('',(0.,0.,1.));
#742=DIRECTION('',(1.,0.,0.));
#743=DIRECTION('',(-1.,0.,0.));
#744=DIRECTION('',(0.,0.,1.));
#745=DIRECTION('',(-1.,-1.15648231731787E-16,0.));
#746=DIRECTION('',(1.15648231731787E-16,-1.,0.));
#747=DIRECTION('',(-1.,-1.15648231731787E-16,0.));
#748=DIRECTION('',(1.15648231731787E-16,-1.,0.));
#749=DIRECTION('',(0.,0.,1.));
#750=DIRECTION('',(1.,0.,0.));
#751=DIRECTION('',(0.,0.,1.));
#752=DIRECTION('',(1.,0.,0.));
#753=DIRECTION('',(0.,0.950341109369483,0.311210179528852));
#754=DIRECTION('',(0.,-0.311210179528852,0.950341109369483));
#755=DIRECTION('',(-1.,0.,0.));
#756=DIRECTION('',(0.,-0.950341109369483,0.311210179528852));
#757=DIRECTION('',(0.,-0.311210179528852,-0.950341109369483));
#758=DIRECTION('',(-1.,0.,0.));
#759=DIRECTION('',(-1.,0.,0.));
#760=DIRECTION('',(0.,0.,1.));
#761=CARTESIAN_POINT('',(0.,0.,0.));
#762=CARTESIAN_POINT('',(-9.18485099360515E-19,0.,0.015));
#763=CARTESIAN_POINT('',(-9.18485099360515E-19,0.,0.01));
#764=CARTESIAN_POINT('',(-0.00852154039698042,-0.0123443650813896,0.01));
#765=CARTESIAN_POINT('',(-0.00852154039698043,0.0123443650813896,0.01));
#766=CARTESIAN_POINT('',(-0.00852154039698042,-0.0123443650813896,0.01));
#767=CARTESIAN_POINT('',(-0.00786261240843271,-0.0127992350918023,0.01));
#768=CARTESIAN_POINT('',(-0.00649775849986915,-0.0135859276953785,0.00977828871822247));
#769=CARTESIAN_POINT('',(-0.00365087495788947,-0.014684796990335,0.00888714432700377));
#770=CARTESIAN_POINT('',(-0.00145784430832595,-0.015,0.00795777264910807));
#771=CARTESIAN_POINT('',(-9.18485099360515E-19,-0.015,0.0073443650813896));
#772=CARTESIAN_POINT('',(-9.18485099360515E-19,-0.015,0.0073443650813896));
#773=CARTESIAN_POINT('',(0.00852154039698042,-0.0123443650813896,0.01));
#774=CARTESIAN_POINT('',(0.00786261240843271,-0.0127992350918023,0.01));
#775=CARTESIAN_POINT('',(0.00649775849986919,-0.0135859276953785,0.00977828871822238));
#776=CARTESIAN_POINT('',(0.00365087495788928,-0.014684796990335,0.00888714432700422));
#777=CARTESIAN_POINT('',(0.00145784430832679,-0.015,0.00795777264910609));
#778=CARTESIAN_POINT('',(-9.18485099360515E-19,-0.015,0.0073443650813896));
#779=CARTESIAN_POINT('',(0.00852154039698042,-0.0123443650813896,0.01));
#780=CARTESIAN_POINT('',(-9.18485099360515E-19,0.,0.01));
#781=CARTESIAN_POINT('',(0.00852154039698042,0.0123443650813896,0.01));
#782=CARTESIAN_POINT('',(0.00852154039698042,0.0123443650813896,0.01));
#783=CARTESIAN_POINT('',(0.00786261240843271,0.0127992350918023,0.01));
#784=CARTESIAN_POINT('',(0.00649775849986918,0.0135859276953785,0.00977828871822241));
#785=CARTESIAN_POINT('',(0.00365087495788934,0.014684796990335,0.00888714432700408));
#786=CARTESIAN_POINT('',(0.00145784430832652,0.015,0.00795777264910671));
#787=CARTESIAN_POINT('',(-2.65320857533732E-18,0.015,0.0073443650813896));
#788=CARTESIAN_POINT('',(-2.65320857533732E-18,0.015,0.0073443650813896));
#789=CARTESIAN_POINT('',(-0.00852154039698043,0.0123443650813896,0.01));
#790=CARTESIAN_POINT('',(-0.00786261240843272,0.0127992350918023,0.01));
#791=CARTESIAN_POINT('',(-0.00649775849986919,0.0135859276953785,0.00977828871822241));
#792=CARTESIAN_POINT('',(-0.00365087495788935,0.014684796990335,0.00888714432700408));
#793=CARTESIAN_POINT('',(-0.00145784430832652,0.015,0.00795777264910672));
#794=CARTESIAN_POINT('',(-2.65320857533732E-18,0.015,0.0073443650813896));
#795=CARTESIAN_POINT('',(-9.18485099360515E-19,0.,0.0641413530492455));
#796=CARTESIAN_POINT('',(0.01,0.0111803398874989,0.03));
#797=CARTESIAN_POINT('',(-0.01,0.0111803398874989,0.03));
#798=CARTESIAN_POINT('',(0.01,0.0111803398874989,0.04));
#799=CARTESIAN_POINT('',(0.01,0.0111803398874989,0.013));
#800=CARTESIAN_POINT('',(-9.18485099360515E-19,0.,0.013));
#801=CARTESIAN_POINT('',(0.01,-0.0111803398874989,0.013));
#802=CARTESIAN_POINT('',(0.01,-0.0111803398874989,0.04));
#803=CARTESIAN_POINT('',(0.01,-0.0111803398874989,0.03));
#804=CARTESIAN_POINT('',(-9.18485099360515E-19,0.,0.0641413530492455));
#805=CARTESIAN_POINT('',(-0.01,-0.0111803398874989,0.03));
#806=CARTESIAN_POINT('',(-0.01,-0.0111803398874989,0.04));
#807=CARTESIAN_POINT('',(-0.01,-0.0111803398874989,0.013));
#808=CARTESIAN_POINT('',(-9.18485099360515E-19,0.,0.013));
#809=CARTESIAN_POINT('',(-0.01,0.0111803398874989,0.013));
#810=CARTESIAN_POINT('',(-0.01,0.0111803398874989,0.04));
#811=CARTESIAN_POINT('',(0.01,-1.7347234759768E-18,0.04));
#812=CARTESIAN_POINT('',(0.01,-4.33680868994202E-19,0.03));
#813=CARTESIAN_POINT('',(0.01,-4.33680868994202E-19,0.02675));
#814=CARTESIAN_POINT('',(0.01,-1.82145964977565E-17,0.0283734365883498));
#815=CARTESIAN_POINT('',(0.01,-1.7347234759768E-18,0.013));
#816=CARTESIAN_POINT('',(0.,0.,0.01));
#817=CARTESIAN_POINT('',(-0.022,1.99005104861445E-19,0.01));
#818=CARTESIAN_POINT('',(-0.01875,1.99005104861445E-19,0.01));
#819=CARTESIAN_POINT('',(-0.01913604,0.0123443650813896,0.01));
#820=CARTESIAN_POINT('',(-0.01913604,0.0123443650813896,0.01));
#821=CARTESIAN_POINT('',(-0.01913604,0.00413604,0.01));
#822=CARTESIAN_POINT('',(-0.0273443650813896,0.00413604,0.01));
#823=CARTESIAN_POINT('',(-0.0273443650813896,-0.00413604,0.01));
#824=CARTESIAN_POINT('',(-0.0273443650813896,-0.00413604,0.01));
#825=CARTESIAN_POINT('',(-0.01913604,-0.00413604,0.01));
#826=CARTESIAN_POINT('',(-0.01913604,-0.0123443650813896,0.01));
#827=CARTESIAN_POINT('',(1.42760399351432E-18,-0.0123443650813896,0.01));
#828=CARTESIAN_POINT('',(0.03,5.20417042793042E-18,0.01));
#829=CARTESIAN_POINT('',(0.03,0.00413604,0.01));
#830=CARTESIAN_POINT('',(0.03,0.00413604,0.));
#831=CARTESIAN_POINT('',(0.03,0.00413604,0.0073443650813896));
#832=CARTESIAN_POINT('',(0.03,5.20417042793042E-18,0.0073443650813896));
#833=CARTESIAN_POINT('',(0.03,-0.00413604,0.0073443650813896));
#834=CARTESIAN_POINT('',(0.03,-0.00413604,0.01));
#835=CARTESIAN_POINT('',(0.03,-0.00413604,0.));
#836=CARTESIAN_POINT('',(0.03,5.20417042793042E-18,0.));
#837=CARTESIAN_POINT('',(0.015,0.015,0.01));
#838=CARTESIAN_POINT('',(-2.65320857533732E-18,0.015,0.0073443650813896));
#839=CARTESIAN_POINT('',(-0.01913604,0.015,0.0073443650813896));
#840=CARTESIAN_POINT('',(0.01913604,0.015,0.0073443650813896));
#841=CARTESIAN_POINT('',(0.01913604,0.015,0.0073443650813896));
#842=CARTESIAN_POINT('',(0.01913604,0.015,0.));
#843=CARTESIAN_POINT('',(0.01913604,0.015,0.));
#844=CARTESIAN_POINT('',(0.015,0.015,0.));
#845=CARTESIAN_POINT('',(-0.01913604,0.015,0.));
#846=CARTESIAN_POINT('',(-0.01913604,0.015,0.01));
#847=CARTESIAN_POINT('',(-0.03,-1.7347234759768E-18,0.01));
#848=CARTESIAN_POINT('',(-0.03,-0.00413604,0.01));
#849=CARTESIAN_POINT('',(-0.03,-0.00413604,0.));
#850=CARTESIAN_POINT('',(-0.03,-0.00413604,0.0073443650813896));
#851=CARTESIAN_POINT('',(-0.03,0.00413604,0.0073443650813896));
#852=CARTESIAN_POINT('',(-0.03,0.00413604,0.0073443650813896));
#853=CARTESIAN_POINT('',(-0.03,0.00413604,0.01));
#854=CARTESIAN_POINT('',(-0.03,0.00413604,0.));
#855=CARTESIAN_POINT('',(-0.03,-1.7347234759768E-18,0.));
#856=CARTESIAN_POINT('',(0.015,-0.015,0.01));
#857=CARTESIAN_POINT('',(0.01913604,-0.015,0.01));
#858=CARTESIAN_POINT('',(0.01913604,-0.015,0.));
#859=CARTESIAN_POINT('',(0.01913604,-0.015,0.0073443650813896));
#860=CARTESIAN_POINT('',(0.015,-0.015,0.0073443650813896));
#861=CARTESIAN_POINT('',(0.015,-0.015,0.0073443650813896));
#862=CARTESIAN_POINT('',(-0.01913604,-0.015,0.0073443650813896));
#863=CARTESIAN_POINT('',(-0.01913604,-0.015,0.));
#864=CARTESIAN_POINT('',(-0.01913604,-0.015,0.));
#865=CARTESIAN_POINT('',(0.015,-0.015,0.));
#866=CARTESIAN_POINT('',(0.,0.,0.01));
#867=CARTESIAN_POINT('',(0.022,1.99005104861445E-19,0.01));
#868=CARTESIAN_POINT('',(0.02525,1.99005104861445E-19,0.01));
#869=CARTESIAN_POINT('',(1.42760399351432E-18,-0.0123443650813896,0.01));
#870=CARTESIAN_POINT('',(0.01913604,-0.0123443650813896,0.01));
#871=CARTESIAN_POINT('',(0.01913604,-0.00413604,0.01));
#872=CARTESIAN_POINT('',(0.0273443650813896,-0.00413604,0.01));
#873=CARTESIAN_POINT('',(0.0273443650813896,0.,0.01));
#874=CARTESIAN_POINT('',(0.0273443650813896,0.00413604,0.01));
#875=CARTESIAN_POINT('',(0.01913604,0.00413604,0.01));
#876=CARTESIAN_POINT('',(0.01913604,0.0123443650813896,0.01));
#877=CARTESIAN_POINT('',(-2.34608909287484E-18,0.0123443650813896,0.01));
#878=CARTESIAN_POINT('',(0.,0.,0.));
#879=CARTESIAN_POINT('',(0.022,1.99005104861445E-19,0.));
#880=CARTESIAN_POINT('',(0.02525,1.99005104861445E-19,0.));
#881=CARTESIAN_POINT('',(-0.022,1.99005104861445E-19,0.));
#882=CARTESIAN_POINT('',(-0.01875,1.99005104861445E-19,0.));
#883=CARTESIAN_POINT('',(0.01913604,0.00413604,0.));
#884=CARTESIAN_POINT('',(0.01913604,-0.00413604,0.));
#885=CARTESIAN_POINT('',(-0.01913604,-0.00413604,0.));
#886=CARTESIAN_POINT('',(-0.01913604,0.00413604,0.));
#887=CARTESIAN_POINT('',(-0.01,-1.7347234759768E-18,0.04));
#888=CARTESIAN_POINT('',(-0.01,-4.33680868994202E-19,0.03));
#889=CARTESIAN_POINT('',(-0.01,-4.33680868994202E-19,0.02675));
#890=CARTESIAN_POINT('',(-0.01,-1.82145964977565E-17,0.0283734365883498));
#891=CARTESIAN_POINT('',(-0.01,-1.7347234759768E-18,0.013));
#892=CARTESIAN_POINT('',(-0.015,-4.33680868994202E-19,0.03));
#893=CARTESIAN_POINT('',(-0.022,1.99005104861445E-19,-0.015));
#894=CARTESIAN_POINT('',(0.022,1.99005104861445E-19,-0.015));
#895=CARTESIAN_POINT('',(0.01913604,0.00413604,0.01));
#896=CARTESIAN_POINT('',(0.01913604,0.00413604,0.0073443650813896));
#897=CARTESIAN_POINT('',(0.01913604,-0.00413604,0.01));
#898=CARTESIAN_POINT('',(0.01913604,-0.00413604,0.0073443650813896));
#899=CARTESIAN_POINT('',(-0.01913604,0.00413604,0.01));
#900=CARTESIAN_POINT('',(-0.01913604,0.00413604,0.0073443650813896));
#901=CARTESIAN_POINT('',(-0.01913604,-0.00413604,0.01));
#902=CARTESIAN_POINT('',(-0.01913604,-0.00413604,0.0073443650813896));
#903=CARTESIAN_POINT('',(-1.42760399351432E-18,0.0123443650813896,0.0073443650813896));
#904=CARTESIAN_POINT('',(-0.01913604,0.0123443650813896,0.0073443650813896));
#905=CARTESIAN_POINT('',(-1.42760399351432E-18,0.0123443650813896,0.0073443650813896));
#906=CARTESIAN_POINT('',(0.01913604,0.0123443650813896,0.0073443650813896));
#907=CARTESIAN_POINT('',(-0.01913604,0.00413604,0.0073443650813896));
#908=CARTESIAN_POINT('',(-0.0273443650813896,0.00413604,0.0073443650813896));
#909=CARTESIAN_POINT('',(0.01913604,0.00413604,0.0073443650813896));
#910=CARTESIAN_POINT('',(0.0273443650813896,0.00413604,0.0073443650813896));
#911=CARTESIAN_POINT('',(-0.0273443650813896,0.,0.0073443650813896));
#912=CARTESIAN_POINT('',(-0.0273443650813896,-0.00413604,0.0073443650813896));
#913=CARTESIAN_POINT('',(0.0273443650813896,5.20417042793042E-18,0.0073443650813896));
#914=CARTESIAN_POINT('',(0.0273443650813896,-0.00413604,0.0073443650813896));
#915=CARTESIAN_POINT('',(-0.01913604,-0.00413604,0.0073443650813896));
#916=CARTESIAN_POINT('',(-0.01913604,-0.0123443650813896,0.0073443650813896));
#917=CARTESIAN_POINT('',(0.01913604,-0.00413604,0.0073443650813896));
#918=CARTESIAN_POINT('',(0.01913604,-0.0123443650813896,0.0073443650813896));
#919=CARTESIAN_POINT('',(0.015,-0.0123443650813896,0.0073443650813896));
#920=CARTESIAN_POINT('',(0.015,-0.0123443650813896,0.0073443650813896));
#921=CARTESIAN_POINT('',(0.,0.,0.013));
#922=CARTESIAN_POINT('',(0.,0.,0.013));
#923=CARTESIAN_POINT('',(0.015,0.013560351237535,0.0227321701683104));
#924=CARTESIAN_POINT('',(0.015,0.0111803398874989,0.03));
#925=CARTESIAN_POINT('',(0.015,-0.013560351237535,0.0227321701683104));
#926=CARTESIAN_POINT('',(0.015,-0.0111803398874989,0.03));
#927=CARTESIAN_POINT('',(0.015,-1.82145964977565E-17,0.0283734365883498));
#928=MECHANICAL_DESIGN_GEOMETRIC_PRESENTATION_REPRESENTATION('',(#517),
#929);
#929=(
GEOMETRIC_REPRESENTATION_CONTEXT(3)
GLOBAL_UNCERTAINTY_ASSIGNED_CONTEXT((#930))
GLOBAL_UNIT_ASSIGNED_CONTEXT((#933,#932,#931))
REPRESENTATION_CONTEXT('Part 1','TOP_LEVEL_ASSEMBLY_PART')
);
#930=UNCERTAINTY_MEASURE_WITH_UNIT(LENGTH_MEASURE(2.E-5),#933,
'DISTANCE_ACCURACY_VALUE','Maximum Tolerance applied to model');
#931=(
NAMED_UNIT(*)
SI_UNIT($,.STERADIAN.)
SOLID_ANGLE_UNIT()
);
#932=(
NAMED_UNIT(*)
PLANE_ANGLE_UNIT()
SI_UNIT($,.RADIAN.)
);
#933=(
LENGTH_UNIT()
NAMED_UNIT(*)
SI_UNIT($,.METRE.)
);
#934=PRODUCT_DEFINITION_SHAPE('','',#935);
#935=PRODUCT_DEFINITION('','',#937,#936);
#936=PRODUCT_DEFINITION_CONTEXT('',#943,'design');
#937=PRODUCT_DEFINITION_FORMATION_WITH_SPECIFIED_SOURCE('','',#939,
 .NOT_KNOWN.);
#938=PRODUCT_RELATED_PRODUCT_CATEGORY('','',(#939));
#939=PRODUCT('Part 1','Part 1','Part 1',(#941));
#940=PRODUCT_CATEGORY('','');
#941=PRODUCT_CONTEXT('',#943,'mechanical');
#942=APPLICATION_PROTOCOL_DEFINITION('international standard',
'ap242_managed_model_based_3d_engineering',2020,#943);
#943=APPLICATION_CONTEXT('managed model based 3d engineering');
ENDSEC;
END-ISO-10303-21;
